<?xml version="1.0" encoding="utf-8"?>
<!-- Generator: Adobe Illustrator 21.0.1, SVG Export Plug-In . SVG Version: 6.00 Build 0)  -->
<svg version="1.1" id="Layer_1" xmlns="http://www.w3.org/2000/svg" xmlns:xlink="http://www.w3.org/1999/xlink" x="0px" y="0px"
	 viewBox="0 0 1585.2 1772.8" style="enable-background:new 0 0 1585.2 1772.8;" xml:space="preserve">
<style type="text/css">
	.st0{fill:none;stroke:#808285;stroke-width:11.3386;stroke-miterlimit:10;}
	.st1{fill:none;stroke:#808285;stroke-width:22.6772;stroke-miterlimit:10;}
	.st2{fill:#949494;}
	.st3{fill:#8BA0BF;}
	.st4{fill:none;stroke:#6D6E71;stroke-width:2.8346;stroke-miterlimit:10;}
	.st5{fill:#5371A2;stroke:#6D6E71;stroke-width:2.8346;stroke-miterlimit:10;}
	.st6{fill:#5371A2;}
	.st7{fill:#8BA0BF;stroke:#6D6E71;stroke-width:2.8346;stroke-miterlimit:10;}
	.st8{fill:none;stroke:#FFFFFF;stroke-width:1.4173;stroke-miterlimit:10;}
	.st9{fill:#FFFFFF;}
	.st10{fill:#E6E7E8;stroke:#58595B;stroke-width:2.8346;stroke-miterlimit:10;}
	.st11{clip-path:url(#SVGID_2_);}
	.st12{fill:none;stroke:#FFFFFF;stroke-width:1.177;stroke-miterlimit:10;}
	.st13{fill:none;stroke:#BCBEC0;stroke-width:3.2366;stroke-miterlimit:10;}
	.st14{fill:none;stroke:#BCBEC0;stroke-width:3.1698;stroke-miterlimit:10;}
	.st15{clip-path:url(#SVGID_4_);}
	.st16{fill:none;stroke:#FFFFFF;stroke-width:1.1339;stroke-miterlimit:10;}
	.st17{clip-path:url(#SVGID_6_);}
	.st18{fill:none;stroke:#FFFFFF;stroke-width:1.1255;stroke-miterlimit:10;}
	.st19{fill:none;stroke:#FFFFFF;stroke-width:1.5202;stroke-miterlimit:10;}
	.st20{fill:none;stroke:#BCBEC0;stroke-width:2.7341;stroke-miterlimit:10;}
	.st21{fill:none;stroke:#BCBEC0;stroke-width:2.8346;stroke-miterlimit:10;}
	.st22{fill:none;stroke:#FFFFFF;stroke-width:1.9062;stroke-miterlimit:10;}
	.st23{fill:none;stroke:#BCBEC0;stroke-width:3.6039;stroke-miterlimit:10;}
	.st24{fill:#8BA0BF;stroke:#BCBEC0;stroke-width:3.0608;stroke-miterlimit:10;}
	.st25{fill:#8BA0BF;stroke:#BCBEC0;stroke-width:3.1134;stroke-miterlimit:10;}
	.st26{fill:#8BA0BF;stroke:#BCBEC0;stroke-width:2.8346;stroke-miterlimit:10;}
	.st27{fill:none;stroke:#FFFFFF;stroke-width:1.2748;stroke-miterlimit:10;}
	.st28{fill:none;stroke:#BCBEC0;stroke-width:2.3004;stroke-miterlimit:10;}
	.st29{fill:none;stroke:#FFFFFF;stroke-width:1.5307;stroke-miterlimit:10;}
	.st30{fill:none;stroke:#BCBEC0;stroke-width:2.8053;stroke-miterlimit:10;}
	.st31{fill:none;stroke:#FFFFFF;stroke-width:1.8787;stroke-miterlimit:10;}
	.st32{fill:none;stroke:#BCBEC0;stroke-width:3.3903;stroke-miterlimit:10;}
	.st33{fill:none;stroke:#BCBEC0;stroke-width:3.2982;stroke-miterlimit:10;}
	.st34{fill:none;stroke:#FFFFFF;stroke-width:1.5615;stroke-miterlimit:10;}
	.st35{fill:none;stroke:#BCBEC0;stroke-width:2.9522;stroke-miterlimit:10;}
	.st36{fill:#8BA0BF;stroke:#BCBEC0;stroke-width:2.8731;stroke-miterlimit:10;}
	.st37{fill:#231F20;}
	.st38{enable-background:new    ;}
</style>
<title>Map 2</title>
<g id="background">
	<polyline class="st0" points="559.7,326 525.9,235.2 661.9,183.9 635.9,73.9 588.5,84.5 	"/>
	<polyline class="st0" points="75.2,453.9 184.1,441.4 188.7,440.9 254.5,424.5 305.9,431.9 492.2,423.1 501.7,419.5 	"/>
	<polyline class="st0" points="125.9,691.9 319.4,678.1 379.5,673.5 385.2,672.5 663.9,607.2 654.2,546.6 	"/>
	<polyline class="st0" points="439.9,159.9 457.9,238.5 525.9,235.2 	"/>
	<polyline class="st0" points="457.9,238.5 283.2,250.5 288.5,321.9 306.5,407.2 315.9,528.5 335.2,595.2 294.3,599.4 	"/>
	<polyline class="st0" points="519.2,9.9 188.8,68.5 17.9,95.2 	"/>
	<polyline class="st0" points="663.9,607.2 960.5,539.9 885.2,361.9 817.3,187 766.3,1.5 	"/>
	<path class="st0" d="M960.5,539.9l50,119.3l123.9,163.9l6.8,10.3l253.5,399l-177,153c0,0-237-306-280.5-363s-130.5,15-130.5,15
		l-524.3,337.7"/>
	<line class="st0" x1="635.9" y1="73.9" x2="633.2" y2="5.9"/>
	<polyline class="st0" points="167.9,341.9 167.2,323.9 90.5,329.9 105.9,448.5 	"/>
	<path class="st0" d="M554.8,1200.9c0,0-187.5-180-204-252s-10.5-163.5-10.5-163.5l-9.9-107.7"/>
	<polyline class="st0" points="296.4,1399.6 463.9,1284.6 507.9,1355.2 	"/>
	<line class="st0" x1="676.9" y1="1556.7" x2="811" y2="1766.8"/>
	<line class="st0" x1="1573.2" y1="1407.9" x2="1394.7" y2="1232.4"/>
	<path class="st1" d="M11.2,13.9l195.6,1215.5c0,0,58.5,147,100.5,202.5S589,1768.3,589,1772.8"/>
	<polygon class="st2" points="1585.2,1373.9 1363.7,1143.4 976.8,525.5 862.8,176 811.8,5.5 1579.2,5.9 1585.2,1347.9 	"/>
</g>
<g id="Create_1">
	<polyline class="st3" points="336.2,544.4 535.7,511.4 489.7,395.4 318.7,405.9 314.2,328.9 535.7,315.9 537.7,334.4 574.7,318.9 
		565.2,300.4 718.2,238.9 809.2,467.9 822.2,540.4 669.7,565.4 670.2,544.6 639.7,550.4 642.2,569.4 365.7,616.9 	"/>
	<line class="st4" x1="761.2" y1="347.4" x2="771.2" y2="372.9"/>
	<line class="st4" x1="774.2" y1="380.4" x2="785.7" y2="407.4"/>
	<line class="st4" x1="788.7" y1="416.4" x2="799.7" y2="442.9"/>
	<polyline class="st4" points="490.4,394.5 490.4,396.6 497.7,415.9 502.2,426.4 537.2,511.9 336.7,545.4 366.7,617.9 642.7,568.9 
		639.7,551 650.7,548.6 661.7,546.9 670.8,545.1 670.7,565.9 822.2,540.4 809.7,466.4 802.2,448.4 	"/>
	<polyline class="st4" points="491.2,395.9 319.7,406.9 315.7,330.4 537.2,316.4 538.2,334.9 556.7,327.9 566.7,322.9 574.7,319.4 
		565.7,301.4 719.2,239.9 758.2,339.4 	"/>
	<polyline class="st4" points="745.5,309.2 727.2,315.5 576.5,375.4 595.2,422.5 628.5,499.4 809.2,468.5 788.9,471.9 	"/>
	<path class="st4" d="M745.5,309.2"/>
	<path class="st4" d="M737.9,312.5"/>
	<line class="st4" x1="779.9" y1="473.5" x2="740.9" y2="480.2"/>
	<polygon class="st5" points="533.2,461.9 542.5,487.9 560.2,481.9 549.5,455.5 	"/>
	<polygon class="st6" points="569.5,438.2 595.9,426.9 594.2,423.2 615,416.8 619.9,415.2 641.5,466.2 636.4,468.6 620.2,476.2 
		616.9,471.9 588.9,482.2 	"/>
	<polygon class="st7" points="272.7,333.9 121.7,347.4 128.2,420.9 280.7,411.9 	"/>
	<polygon class="st7" points="132.7,459.4 211.2,447.9 225.7,560.9 288.2,550.9 299.7,625.9 166.7,651.4 142.7,572.9 	"/>
	<line class="st8" x1="639.1" y1="467.8" x2="615.5" y2="415.7"/>
	<line class="st8" x1="636.7" y1="469" x2="613.2" y2="416.9"/>
	<line class="st8" x1="634.2" y1="469.8" x2="610.7" y2="417.7"/>
	<line class="st8" x1="632.2" y1="471.3" x2="608.7" y2="419.2"/>
	<path class="st9" d="M542.3,469.8h7.7c0.4,0,0.6-0.3,0.7-0.6c0-0.1,0-0.3-0.1-0.4l-3.9-6.4c-0.2-0.3-0.6-0.4-0.9-0.2
		c-0.1,0-0.1,0.1-0.2,0.2l-3.9,6.4c-0.2,0.3-0.1,0.7,0.2,0.9C542.1,469.8,542.2,469.8,542.3,469.8L542.3,469.8z"/>
	<path class="st9" d="M550,473.7h-7.7c-0.4,0-0.6,0.3-0.7,0.6c0,0.1,0,0.3,0.1,0.4l3.9,6.4c0.2,0.3,0.6,0.4,0.9,0.2
		c0.1-0.1,0.2-0.1,0.2-0.2l3.9-6.4c0.2-0.3,0.1-0.7-0.2-0.9C550.3,473.7,550.2,473.7,550,473.7L550,473.7z"/>
	<line class="st8" x1="629.4" y1="471.5" x2="605.9" y2="419.4"/>
	<line class="st8" x1="627.1" y1="472.6" x2="603.5" y2="420.5"/>
	<line class="st8" x1="624.6" y1="473.5" x2="601" y2="421.4"/>
	<line class="st8" x1="622.6" y1="475" x2="599" y2="422.9"/>
	<polygon class="st4" points="569.3,438 596.9,426.9 595.2,422.5 614.7,416.6 619.6,415 641.3,466 636.2,468.4 618.9,476.5 
		616.6,471.6 588.6,482 	"/>
	<line class="st8" x1="913.4" y1="1160.6" x2="919.4" y2="1164.7"/>
	<line class="st4" x1="489.7" y1="395.4" x2="576.5" y2="375.4"/>
	<line class="st4" x1="537.2" y1="511.9" x2="628.5" y2="499.4"/>
	<line class="st4" x1="527.5" y1="387.4" x2="569" y2="506.9"/>
	<path class="st4" d="M721.5,1241.1"/>
</g>
<g id="Other">
	<polyline class="st10" points="599,120.9 292.5,197.9 277.9,132.5 582.5,61.9 599,120.9 	"/>
	<polygon class="st10" points="473.7,700.9 405.7,731.4 503.2,965.4 563.2,1007.9 812.2,747.4 760.2,700.9 577.2,906.9 564.7,898.9 
			"/>
	<polygon class="st10" points="235.7,713.9 316.7,729.9 289.2,884.4 431.7,1122.9 370.2,1162.4 205.2,889.9 	"/>
</g>
<g id="Musk2">
	<path class="st6" d="M669.2,1561.5l-33.2,20.9l-3.4,2.7l-32.3,20.2L501.7,1451l-43.9,28.4l-32-51.1l39.3-25.8l-8.8-14l179.5-113.2
		l17.1,25.9l64.1-32.5l-5.2-5.6l-26.8,16.3l-28.8-45.6l25-16.4l-8.1-14.9l22-11.7l7.6,12.5l27.2-17.9l38.9,59.2l-74.8,34.7l-1.7,1.3
		l61.5-32.2l15.8-3.3l38-6.5l18.3-2l13-4.7l-24.3-12.3l-6-7.3c0,0-17.2-28,4.7-68s53.7-57.7,53.7-57.7l37.5-25.6l56.5,47.6
		c0,0-0.5,14.1-19.3,51.7c-1,2,5.6,1.7,5.6,1.7s46.6,10.8,42.6,58.2c0,0-8.1,31.5-12.3,34.7s35.8-21.9,35.8-21.9l48.6,77.9
		l-114.6,74l-47.3-73.7l-12.2,13.8l-18.7,41l-6.6,15.2l-9.7,12.7l-43.4,34l41.2-30.5l20.8,32.9l-48.4,28.6l-16-21.9l10.1-7.3l-2.8-5
		l-16.8,12.3l-38.6,30.2l16.6,25.6l-92.3,59.4"/>
	<polyline class="st3" points="814.2,1302.2 851.3,1294.3 862.2,1289.8 866.2,1294.3 877.6,1297.4 845.5,1310.3 822.2,1314.5 	"/>
	<path class="st3" d="M960.8,1114.4c-2.7,15.5-20.1,46.2-20.1,46.2l-21.5,13.3c-0.4,3.3-24.2,18.8-24.2,18.8l-21.8,12.7
		c0,0-12.3,17.1-26.9,23c-10.9,4.4-22.5,2-34.6-14.6c-28.3-38.8,25-101.1,25-101.1s40.5-39.3,62.9-48.5l0.5,1.2l-14.8,23.5
		c0,0-27.5,30.5-9,60.7c9.9,16.1,40.2-2.2,40.2-2.2s17.3-7.5,44-33L960.8,1114.4z"/>
	<g>
		<defs>
			<path id="SVGID_1_" d="M960.8,1114.4c-0.5,16.1-19.6,46.2-19.6,46.2l-15.3,8.3c-0.4,3.3-28.7,22-28.7,22l-21.2,10.8
				c0,0-34.8,55.1-64.3,12.2c-27.2-39.6,25-101.1,25-101.1s24-27.6,46.3-36.8l15.5-10.3l-13.5,22c0,0-24.6,38-12.3,57.5
				c14.8,23.3,52.5-3,52.5-3s5.7-2.9,33.9-28.4L960.8,1114.4z"/>
		</defs>
		<clipPath id="SVGID_2_">
			<use xlink:href="#SVGID_1_"  style="overflow:visible;"/>
		</clipPath>
		<g class="st11">
			<polyline class="st12" points="957.2,1286.5 960.2,1123 952.7,1115.5 929.2,1288.5 904.3,1289.1 946.3,1109.6 940.5,1105 
				885.2,1274.4 869.7,1262 937.3,1102.4 933.6,1099.5 855,1250.2 839.1,1237.5 929.9,1096.5 924.6,1092.3 822.5,1224.8 
				806.1,1211.7 921.7,1089.2 917.6,1086 791.8,1199.6 773.4,1184.8 914.3,1082.6 909.4,1078.7 757.2,1169.2 740,1155.4 
				904.5,1074.8 898,1068.3 770.2,1114 			"/>
			<line class="st12" x1="998.3" y1="1153.1" x2="854.1" y2="1035"/>
			<line class="st12" x1="990.9" y1="1162.2" x2="846.7" y2="1044.1"/>
			<line class="st12" x1="983.4" y1="1171.3" x2="839.2" y2="1053.2"/>
			<line class="st12" x1="976" y1="1180.4" x2="831.8" y2="1062.3"/>
			<line class="st12" x1="967.8" y1="1190.4" x2="823.6" y2="1072.3"/>
			<line class="st12" x1="961.1" y1="1198.6" x2="816.8" y2="1080.5"/>
			<line class="st12" x1="961.4" y1="1199.2" x2="817.2" y2="1081.1"/>
			<line class="st12" x1="953.9" y1="1208.3" x2="809.7" y2="1090.2"/>
			<line class="st12" x1="946.5" y1="1217.4" x2="802.3" y2="1099.3"/>
			<line class="st12" x1="939" y1="1226.5" x2="794.8" y2="1108.4"/>
			<line class="st12" x1="930.8" y1="1236.5" x2="786.6" y2="1118.5"/>
			<line class="st12" x1="924.1" y1="1244.7" x2="779.9" y2="1126.7"/>
			<line class="st12" x1="924" y1="1244.9" x2="779.8" y2="1126.9"/>
			<line class="st12" x1="916.6" y1="1254.1" x2="772.4" y2="1136"/>
			<line class="st12" x1="909.1" y1="1263.2" x2="764.9" y2="1145.1"/>
			<line class="st12" x1="901.7" y1="1272.3" x2="757.5" y2="1154.2"/>
			<line class="st12" x1="893.5" y1="1282.3" x2="749.3" y2="1164.2"/>
			<line class="st12" x1="886.8" y1="1290.5" x2="742.6" y2="1172.4"/>
		</g>
	</g>
	<path class="st3" d="M577,1446.9l-19.2-27.8l-6-10.5c0,0,25.5-14.4,40.8-30.9l12.7-9.6l2.2-3.3l18.5-14.2l42.6-27.5l1.1,3.2
		l98.8-67.7l2.8,4.8l72,117.2l-176.7,106.8l-49.8,23l-19.8-32.8"/>
	<path class="st13" d="M841.7,1230.9c-11.2-0.8-22.4-5.6-31.2-17.5c-28.1-38.3,24.7-100.3,24.7-100.3s47.9-42.7,70-52"/>
	
		<rect x="912" y="1262" transform="matrix(0.8435 -0.5372 0.5372 0.8435 -549.1841 731.0451)" class="st13" width="135.7" height="91.8"/>
	<polyline class="st13" points="772.5,1263.5 785,1255.6 802.5,1283.1 	"/>
	<line class="st13" x1="810" y1="1295.9" x2="813.3" y2="1301"/>
	<polyline class="st13" points="822.1,1314.6 826.4,1321.7 838,1314.3 850.5,1334.1 839.5,1341.2 854.2,1364.4 841.4,1372.6 	"/>
	<line class="st13" x1="825.7" y1="1389.2" x2="835.6" y2="1404.6"/>
	<polyline class="st13" points="851,1395.5 872,1428.6 823.7,1459.4 808.1,1434.9 847.6,1409.7 	"/>
	<line class="st13" x1="814.7" y1="1422.8" x2="818.3" y2="1428.4"/>
	<polyline class="st13" points="776.4,1269.5 769,1257.9 749.5,1270.3 741,1257 	"/>
	<polyline class="st13" points="770.4,1245.5 730.9,1185.4 681.6,1217.7 656.9,1233.8 685.5,1279.6 713.3,1262.6 717.1,1268.6 	"/>
	<path class="st13" d="M749.5,1270.3l-79.4,56.6l-33.1-52L457.7,1389l8.8,13.8L427,1428l32.6,51.2l43.9-28l97.7,153.5l175.8-111.9
		l-17.3-27.1l84.7-64.8c0,0,16-10.2,24.8-34.5s22.6-48.8,31.8-55.9"/>
	<line class="st13" x1="832.3" y1="1360.2" x2="781.3" y2="1280.3"/>
	
		<rect x="831.7" y="1316.1" transform="matrix(0.8435 -0.5372 0.5372 0.8435 -582.0142 658.2271)" class="st13" width="13.7" height="23.4"/>
	<polyline class="st13" points="655.5,1315.7 620,1338.3 627.4,1349.9 577.6,1391.3 	"/>
	<polyline class="st13" points="565.3,1371.9 612.7,1340.5 622,1355.2 	"/>
	<line class="st13" x1="569" y1="1433.6" x2="603.8" y2="1488.2"/>
	<polyline class="st13" points="639,1498.4 635.8,1500.2 617.8,1510.1 608.2,1495.1 	"/>
	<polyline class="st13" points="747.4,1457.2 712.4,1479.5 703.9,1466.2 	"/>
	<path class="st13" d="M669.2,1507.6"/>
	<line class="st13" x1="685.2" y1="1478" x2="694" y2="1491.8"/>
	<polyline class="st13" points="646.5,1495.5 704.3,1465.9 736.7,1445.3 	"/>
	<line class="st14" x1="700.8" y1="1486.8" x2="712.3" y2="1479.5"/>
	<path class="st13" d="M752.8,1505.7"/>
	<path class="st13" d="M736.6,1480.3"/>
	<path class="st13" d="M760,1466.1"/>
	<path class="st13" d="M720.4,1526.3"/>
	<path class="st13" d="M704.5,1501.4"/>
	<line class="st13" x1="673.4" y1="1530.9" x2="685.7" y2="1550.3"/>
	<line class="st13" x1="653.5" y1="1533.9" x2="669.9" y2="1559.7"/>
	<line class="st13" x1="637.5" y1="1544.1" x2="654.5" y2="1570.7"/>
	<line class="st13" x1="620.5" y1="1553.7" x2="637.5" y2="1580.3"/>
	<path class="st13" d="M616.7,1540.9c0,0-2.4,1.5-4.2,2.7l-12.9-20.8l18.6-11.9l12.9,20.2l-6.2,4"/>
	<path class="st13" d="M540.7,1429.3"/>
	<path class="st13" d="M595.4,1515.3"/>
	<polyline class="st13" points="545.9,1383.6 553.5,1378.8 566.5,1398.3 553,1409.4 562.8,1424.8 566.3,1430.3 569.7,1434.5 	"/>
	<path class="st13" d="M594.2,1339"/>
	<line class="st13" x1="599.4" y1="1334.5" x2="621.2" y2="1320.6"/>
	<line class="st13" x1="634.2" y1="1312.8" x2="653.7" y2="1301.1"/>
	<line class="st13" x1="595.8" y1="1302.3" x2="611.7" y2="1327.3"/>
	<polyline class="st13" points="537.5,1340.1 552.8,1364.1 537.8,1373.7 	"/>
	<polyline class="st13" points="515.6,1353.7 532.2,1379.7 526,1383.7 	"/>
	<polyline class="st13" points="501.8,1360.4 518.5,1386.6 511,1391.4 	"/>
	<line class="st13" x1="486.8" y1="1371.1" x2="507.6" y2="1403.8"/>
	<path class="st13" d="M497,1434.1"/>
	<path class="st13" d="M466.5,1402.8"/>
	<line class="st13" x1="522.5" y1="1429.1" x2="548.9" y2="1470.6"/>
	<line class="st13" x1="511.9" y1="1463.3" x2="535.8" y2="1448.1"/>
	<line class="st13" x1="552.7" y1="1408.9" x2="548.3" y2="1402.5"/>
	<polyline class="st13" points="532,1494 555.5,1479 559.4,1485.1 	"/>
	<polyline class="st13" points="576.7,1513.3 580.5,1519.3 557.2,1534.3 	"/>
	<path class="st13" d="M590.9,1586.5"/>
	<path class="st13" d="M613.1,1572.3"/>
	<path class="st13" d="M579.6,1570.7"/>
	<path class="st13" d="M625.9,1589.5"/>
	<path class="st13" d="M619,1578.8"/>
	<path class="st13" d="M735.1,1520"/>
	<path class="st13" d="M583.3,1402.1c0,0,4.4-13.7,11.5-18.2"/>
	<path class="st13" d="M603.4,1383.1c0,0,17.6-23.3,26.9-24.4s23.1-14.7,23.1-14.7"/>
	<path class="st13" d="M664.7,1474.2c0,0,22.2-3.3,33.3-13.3c7.1-6.3,15.3-11.3,24.2-14.8"/>
	<path class="st13" d="M638.3,1483.7c0,0,8.7,2.9,24.1-3.3"/>
	<path class="st13" d="M631.6,1491c0,0-8.7-4.8-13.9-20.8"/>
	<path class="st13" d="M588.6,1424.9c0,0-15.4-17.4-13.3-22.9"/>
	
		<rect x="702.8" y="1226.4" transform="matrix(0.8435 -0.5372 0.5372 0.8435 -553.8594 581.0603)" class="st13" width="34.7" height="29.1"/>
	
		<rect x="620.9" y="1327.7" transform="matrix(0.8435 -0.5372 0.5372 0.8435 -618.0049 550.1917)" class="st13" width="28.4" height="15.8"/>
	
		<rect x="847.2" y="1249.2" transform="matrix(0.8435 -0.5372 0.5372 0.8435 -539.5438 654.8959)" class="st13" width="13.7" height="8.2"/>
	
		<rect x="885.5" y="1223" transform="matrix(0.8435 -0.5372 0.5372 0.8435 -519.3586 670.7158)" class="st13" width="11.6" height="7.1"/>
	
		<rect x="917.9" y="1267.3" transform="matrix(0.8412 -0.5408 0.5408 0.8412 -540.4127 701.287)" class="st13" width="11.6" height="6.6"/>
	
		<rect x="899.9" y="1284.2" transform="matrix(0.8435 -0.5372 0.5372 0.8435 -550.1788 688.4382)" class="st13" width="12.6" height="8.2"/>
	<polygon class="st13" points="673.8,1202.5 695.9,1190.2 702.2,1204.3 681.6,1217.7 	"/>
	<line class="st13" x1="613.6" y1="1291" x2="629.4" y2="1317.8"/>
	<line class="st13" x1="441" y1="1449.3" x2="463.4" y2="1435"/>
	<polyline class="st13" points="468.5,1431.8 473.2,1428.7 491.6,1457.7 	"/>
	<line class="st13" x1="479.3" y1="1423.3" x2="500.6" y2="1409.7"/>
	<line class="st13" x1="490.3" y1="1404.6" x2="474.7" y2="1380.2"/>
	<line class="st13" x1="466.5" y1="1402.8" x2="474.8" y2="1416.4"/>
	<line class="st13" x1="448.9" y1="1414" x2="457.6" y2="1427.8"/>
	<line class="st13" x1="487.8" y1="1419" x2="506.4" y2="1448.3"/>
	<line class="st13" x1="509.5" y1="1427" x2="497.4" y2="1434.7"/>
	<line class="st13" x1="509.3" y1="1407.4" x2="521" y2="1425.8"/>
	<polyline class="st13" points="519.3,1403.8 516.5,1399.5 534.3,1388.2 537.8,1386 548.6,1402.9 	"/>
	<line class="st13" x1="524.4" y1="1411.8" x2="546" y2="1398.1"/>
	<line class="st13" x1="522.1" y1="1408.9" x2="527.6" y2="1417.5"/>
	<polyline class="st13" points="532.8,1421.8 538.1,1430.1 558.2,1417.3 	"/>
	<polyline class="st13" points="542.4,1437.5 545.8,1442.9 559.5,1464.4 	"/>
	<line class="st13" x1="545.8" y1="1442.9" x2="566.1" y2="1430"/>
	<line class="st13" x1="585.4" y1="1460" x2="564.1" y2="1473.6"/>
	<polyline class="st13" points="561.9,1469.4 596.8,1524.5 599.7,1522.9 	"/>
	<line class="st13" x1="562.4" y1="1491.2" x2="566.6" y2="1497.8"/>
	<line class="st13" x1="569.2" y1="1503.8" x2="572.9" y2="1509.5"/>
	<line class="st13" x1="548.9" y1="1521.5" x2="570.8" y2="1506.3"/>
	<line class="st13" x1="539.5" y1="1509.4" x2="564.9" y2="1494.4"/>
	<line class="st13" x1="580.5" y1="1519.3" x2="591.4" y2="1538"/>
	<line class="st13" x1="566.3" y1="1551.5" x2="591.4" y2="1536"/>
	<polyline class="st13" points="595.7,1546.1 608.3,1567.9 586.1,1582.5 	"/>
	<line class="st13" x1="637.4" y1="1526" x2="662.6" y2="1510"/>
	<line class="st13" x1="664.4" y1="1486.7" x2="674.8" y2="1503.8"/>
	<line class="st13" x1="683" y1="1497" x2="674.4" y2="1502.5"/>
	<line class="st13" x1="693.6" y1="1472.5" x2="701.8" y2="1485.4"/>
	<polyline class="st13" points="716.3,1529.8 699.2,1502.8 709.5,1496.2 	"/>
	<polyline class="st13" points="715.1,1491.9 725.1,1485.5 744.4,1513.1 	"/>
	<polyline class="st13" points="733.6,1480.5 741.3,1475.6 745.4,1472.9 764,1500.6 	"/>
	<line class="st13" x1="562.8" y1="1323.3" x2="577.1" y2="1346.4"/>
	<polyline class="st13" points="578.4,1312.6 594,1336.9 594.4,1337.7 585.6,1343.4 	"/>
	<line class="st13" x1="580.2" y1="1346.1" x2="568.4" y2="1353.6"/>
	<polyline class="st13" points="696.4,1271.3 677.8,1242.1 733.7,1206.4 752.2,1235.4 	"/>
	<path class="st13" d="M651.6,1335.6c0,0,10.6,7.4,19.2,0.7"/>
	<path class="st13" d="M670,1327.6c0,0,19,5.2,35.6-15.1s42.8-22.8,42.8-22.8"/>
	<path class="st13" d="M761.3,1292.8c0,0,10.9,0.7,13,4.2s8.2,5.7,9.2,4.6s7.9-4.6,7.9-4.6"/>
	<path class="st13" d="M818.7,1340.5c0,0-11,5-9.7,9s2.1,16.4-0.2,18.7"/>
	<path class="st13" d="M783.5,1301.6c0,0,15.1,35.5,28.4,44"/>
	<path class="st13" d="M731.2,1433.7c0,0-8.7,9.2-4.2,16.3"/>
	<path class="st13" d="M742.3,1443.6l-2.6-3.7c-2.5-9.7,6.7-18.8,29.8-30.3c13.9-6.9,26.7-16,37.8-26.9"/>
	<polyline class="st13" points="741.1,1444.7 744.6,1442 842.7,1379.6 835.9,1368.8 	"/>
	<path class="st3" d="M771.8,1246c0,0,21.3-5.8,54.8-7.5c0,0,26.5-9.8,46-32.5c0,0,30.5-12.5,44.3-27s19.8-16.8,26.3-16.5
		s20.5,7.8,20.5,7.8l14.5,12.5c0,0,15.3,15.8,12.5,31.3s-12.3,39.8-12.3,39.8l-37.3,25c0,0,23.3-26.5,12.3-42.5s-34-24.8-34-24.8
		l-25-7.8c0,0-18.5,5.8-29.3,15.5s-24.3,19.5-36,25s-37.5,3-37.5,3L771.8,1246z"/>
	<g>
		<defs>
			<path id="SVGID_3_" d="M772.5,1245.4c0,0,21.3-5.8,54.8-7.5c0,0,26.5-9.8,46-32.5c0,0,30.5-12.5,44.3-27s19.8-16.8,26.3-16.5
				s20.5,7.8,20.5,7.8l14.5,12.5c0,0,15.3,15.8,12.5,31.3s-12.3,39.8-12.3,39.8l-37.3,25c0,0,23.3-26.5,12.3-42.5s-34-24.8-34-24.8
				l-25-7.8c0,0-18.5,5.8-29.3,15.5s-24.3,19.5-36,25s-37.5,3-37.5,3L772.5,1245.4z"/>
		</defs>
		<clipPath id="SVGID_4_">
			<use xlink:href="#SVGID_3_"  style="overflow:visible;"/>
		</clipPath>
		<g class="st15">
			<line class="st16" x1="943.3" y1="1148.3" x2="820.1" y2="1296.5"/>
			<line class="st16" x1="952.7" y1="1156" x2="829.5" y2="1304.3"/>
			<line class="st16" x1="963" y1="1164.6" x2="839.8" y2="1312.8"/>
			<line class="st16" x1="971.4" y1="1171.6" x2="848.2" y2="1319.8"/>
			<line class="st16" x1="980.8" y1="1179.4" x2="857.6" y2="1327.6"/>
			<line class="st16" x1="990.2" y1="1187.2" x2="867" y2="1335.4"/>
			<line class="st16" x1="999.5" y1="1194.9" x2="876.3" y2="1343.2"/>
			<line class="st16" x1="1008.9" y1="1202.7" x2="885.7" y2="1351"/>
			<line class="st16" x1="1018.3" y1="1210.5" x2="895" y2="1358.8"/>
			<line class="st16" x1="1027.6" y1="1218.3" x2="904.4" y2="1366.5"/>
			<line class="st16" x1="1027.7" y1="1218.6" x2="879.4" y2="1095.4"/>
			<line class="st16" x1="1019.9" y1="1227.9" x2="871.6" y2="1104.7"/>
			<line class="st16" x1="1011.3" y1="1238.2" x2="863.1" y2="1115"/>
			<line class="st16" x1="1004.3" y1="1246.7" x2="856.1" y2="1123.5"/>
			<line class="st16" x1="996.5" y1="1256" x2="848.3" y2="1132.8"/>
			<line class="st16" x1="988.7" y1="1265.4" x2="840.5" y2="1142.2"/>
			<line class="st16" x1="981" y1="1274.8" x2="832.7" y2="1151.5"/>
			<line class="st16" x1="973.2" y1="1284.1" x2="824.9" y2="1160.9"/>
			<line class="st16" x1="965.4" y1="1293.5" x2="817.2" y2="1170.3"/>
			<line class="st16" x1="957.6" y1="1302.8" x2="809.4" y2="1179.6"/>
			<line class="st16" x1="957.6" y1="1302.8" x2="809.4" y2="1179.6"/>
			<line class="st16" x1="949.8" y1="1312.2" x2="801.6" y2="1189"/>
			<line class="st16" x1="941.3" y1="1322.5" x2="793" y2="1199.3"/>
			<line class="st16" x1="934.3" y1="1330.9" x2="786" y2="1207.7"/>
			<line class="st16" x1="926.5" y1="1340.3" x2="778.2" y2="1217.1"/>
			<line class="st16" x1="918.7" y1="1349.7" x2="770.5" y2="1226.4"/>
			<line class="st16" x1="910.9" y1="1359" x2="762.7" y2="1235.8"/>
			<line class="st16" x1="903.1" y1="1368.4" x2="754.9" y2="1245.2"/>
			<line class="st16" x1="878.8" y1="1094.6" x2="755.5" y2="1242.8"/>
			<line class="st16" x1="887.2" y1="1101.6" x2="764" y2="1249.8"/>
			<line class="st16" x1="896.5" y1="1109.3" x2="773.3" y2="1257.6"/>
			<line class="st16" x1="905.9" y1="1117.1" x2="782.7" y2="1265.4"/>
			<line class="st16" x1="915.3" y1="1124.9" x2="792.1" y2="1273.2"/>
			<line class="st16" x1="924.6" y1="1132.7" x2="801.4" y2="1280.9"/>
			<line class="st16" x1="934" y1="1140.5" x2="810.8" y2="1288.7"/>
			<line class="st16" x1="943.3" y1="1148.3" x2="820.2" y2="1296.5"/>
			<line class="st16" x1="1008.8" y1="1197.2" x2="783.2" y2="1215.3"/>
			<line class="st16" x1="1010" y1="1212" x2="784.3" y2="1230"/>
			<line class="st16" x1="1011.2" y1="1228.3" x2="785.5" y2="1246.3"/>
			<line class="st16" x1="1012.2" y1="1241.6" x2="786.6" y2="1259.6"/>
			<line class="st16" x1="1013.4" y1="1256.3" x2="787.7" y2="1274.4"/>
			<line class="st16" x1="1014.5" y1="1271.1" x2="788.8" y2="1289.1"/>
			<line class="st16" x1="1015.6" y1="1285.9" x2="790" y2="1303.9"/>
			<line class="st16" x1="1016.7" y1="1300.7" x2="791.1" y2="1318.7"/>
			<line class="st16" x1="1017.9" y1="1315.4" x2="792.2" y2="1333.5"/>
			<line class="st16" x1="1019" y1="1330.2" x2="793.3" y2="1348.3"/>
			<line class="st16" x1="1018.8" y1="1330.5" x2="1001" y2="1096.5"/>
			<line class="st16" x1="1004.5" y1="1331.6" x2="986.7" y2="1097.7"/>
			<line class="st16" x1="988.8" y1="1332.9" x2="971" y2="1098.9"/>
			<line class="st16" x1="976" y1="1333.9" x2="958.2" y2="1099.9"/>
			<line class="st16" x1="961.8" y1="1335" x2="943.9" y2="1101.1"/>
			<line class="st16" x1="947.5" y1="1336.2" x2="929.7" y2="1102.2"/>
			<line class="st16" x1="933.3" y1="1337.3" x2="915.4" y2="1103.3"/>
			<line class="st16" x1="919" y1="1338.5" x2="901.2" y2="1104.5"/>
			<line class="st16" x1="904.8" y1="1339.6" x2="886.9" y2="1105.6"/>
			<line class="st16" x1="890.5" y1="1340.7" x2="872.7" y2="1106.8"/>
			<line class="st16" x1="890.5" y1="1340.7" x2="872.7" y2="1106.8"/>
			<line class="st16" x1="876.3" y1="1341.9" x2="858.4" y2="1107.9"/>
			<line class="st16" x1="860.6" y1="1343.1" x2="842.7" y2="1109.2"/>
			<line class="st16" x1="847.7" y1="1344.2" x2="829.9" y2="1110.2"/>
			<line class="st16" x1="833.5" y1="1345.3" x2="815.7" y2="1111.3"/>
			<line class="st16" x1="819.2" y1="1346.4" x2="801.4" y2="1112.4"/>
			<line class="st16" x1="805" y1="1347.6" x2="787.2" y2="1113.6"/>
			<line class="st16" x1="790.7" y1="1348.7" x2="772.9" y2="1114.7"/>
			<line class="st16" x1="1001.1" y1="1095.3" x2="775.4" y2="1113.3"/>
			<line class="st16" x1="1002.1" y1="1108.6" x2="776.4" y2="1126.6"/>
			<line class="st16" x1="1003.2" y1="1123.3" x2="777.6" y2="1141.4"/>
			<line class="st16" x1="1004.3" y1="1138.1" x2="778.7" y2="1156.1"/>
			<line class="st16" x1="1005.5" y1="1152.9" x2="779.8" y2="1170.9"/>
			<line class="st16" x1="1006.6" y1="1167.7" x2="780.9" y2="1185.7"/>
			<line class="st16" x1="1007.7" y1="1182.4" x2="782.1" y2="1200.5"/>
			<line class="st16" x1="1008.8" y1="1197.2" x2="783.2" y2="1215.3"/>
		</g>
	</g>
	<path class="st13" d="M655.2,1301l86.2-44.3c0,0,28.8-16.5,79.3-18.5c10.1-0.4,20-6,28.2-11.7s15.5-12.4,23.5-18.4
		c5.2-3.9,10.7-7.5,16.3-10.8c5.2-3.1,10.7-5.7,15.6-9.2c7.3-5.2,14-11.2,20.2-17.7l0.6-0.6c0,0,12.3-13.9,28.5-6.1
		s23.4,16.7,23.4,16.7s21.5,18.7,11,49c-8.2,23.7-10,25-10,25"/>
	<path class="st13" d="M961.7,1108.6c-0.4,16-21.2,53.3-21.2,53.3"/>
	<path class="st13" d="M932.1,1283.9c0,0,33.3-23,21.8-47.1c-7.3-15.1-24.5-23.5-39.7-28.4c-2.2-0.7-4.4-1.3-6.6-1.9
		c-3.2-0.8-6.1-2.4-9.3-3c-3.4-0.6-6.8,0.2-10,1.4c-7.7,2.9-14.2,8.2-20.7,13.1c-8.9,6.7-17,14.6-26.7,20.1
		c-10.5,6-23.5,9.9-35.9,9.1c-11.7-0.7-23.2-2.1-34.8-0.6c-2.3,0.3-4.6,0.7-6.9,1.2"/>
	<path class="st3" d="M904.8,1060.9c0,0-28.8,35.5-32.8,53.8s-1.5,26-1.5,26s2.6,16.5,19.3,14.8s32.9-10.3,32.9-10.3
		s39.2-30.4,39.2-35.1L904.8,1060.9z"/>
	<g>
		<defs>
			<path id="SVGID_5_" d="M905.3,1060.1c0,0-28.8,35.5-32.8,53.8s-1.5,26-1.5,26s2.6,16.5,19.3,14.8s32.9-10.3,32.9-10.3
				s39.2-30.4,39.2-35.1L905.3,1060.1z"/>
		</defs>
		<clipPath id="SVGID_6_">
			<use xlink:href="#SVGID_5_"  style="overflow:visible;"/>
		</clipPath>
		<g class="st17">
			<line class="st18" x1="933.7" y1="1050.1" x2="818.2" y2="1185.8"/>
			<line class="st18" x1="942.3" y1="1057.4" x2="826.8" y2="1193.1"/>
			<line class="st18" x1="951.7" y1="1065.4" x2="836.2" y2="1201.1"/>
			<line class="st18" x1="959.4" y1="1072" x2="843.9" y2="1207.7"/>
			<line class="st18" x1="968" y1="1079.3" x2="852.5" y2="1215"/>
			<line class="st18" x1="976.5" y1="1086.6" x2="861.1" y2="1222.3"/>
			<line class="st18" x1="985.1" y1="1093.9" x2="869.6" y2="1229.6"/>
			<line class="st18" x1="993.7" y1="1101.2" x2="878.2" y2="1236.9"/>
			<line class="st18" x1="1002.3" y1="1108.5" x2="886.8" y2="1244.2"/>
			<line class="st18" x1="1010.8" y1="1115.8" x2="895.3" y2="1251.5"/>
			<line class="st18" x1="1010.9" y1="1116" x2="875.1" y2="1000.5"/>
			<line class="st18" x1="1003.6" y1="1124.6" x2="867.8" y2="1009.1"/>
			<line class="st18" x1="995.5" y1="1134" x2="859.8" y2="1018.5"/>
			<line class="st18" x1="989" y1="1141.7" x2="853.3" y2="1026.2"/>
			<line class="st18" x1="981.7" y1="1150.3" x2="846" y2="1034.8"/>
			<line class="st18" x1="974.4" y1="1158.9" x2="838.7" y2="1043.4"/>
			<line class="st18" x1="967.1" y1="1167.4" x2="831.4" y2="1051.9"/>
			<line class="st18" x1="959.8" y1="1176" x2="824.1" y2="1060.5"/>
			<line class="st18" x1="952.5" y1="1184.6" x2="816.8" y2="1069.1"/>
			<line class="st18" x1="945.2" y1="1193.2" x2="809.5" y2="1077.7"/>
			<line class="st18" x1="945.2" y1="1193.2" x2="809.5" y2="1077.7"/>
			<line class="st18" x1="937.9" y1="1201.7" x2="802.2" y2="1086.2"/>
			<line class="st18" x1="929.9" y1="1211.2" x2="794.2" y2="1095.7"/>
			<line class="st18" x1="923.3" y1="1218.9" x2="787.6" y2="1103.4"/>
			<line class="st18" x1="916" y1="1227.4" x2="780.3" y2="1112"/>
			<line class="st18" x1="908.7" y1="1236" x2="773" y2="1120.5"/>
			<line class="st18" x1="901.4" y1="1244.6" x2="765.7" y2="1129.1"/>
			<line class="st18" x1="894.2" y1="1253.2" x2="758.4" y2="1137.7"/>
			<line class="st18" x1="874.5" y1="999.8" x2="759" y2="1135.5"/>
			<line class="st18" x1="882.3" y1="1006.3" x2="766.8" y2="1142.1"/>
			<line class="st18" x1="890.8" y1="1013.6" x2="775.3" y2="1149.3"/>
			<line class="st18" x1="899.4" y1="1020.9" x2="783.9" y2="1156.7"/>
			<line class="st18" x1="908" y1="1028.2" x2="792.5" y2="1163.9"/>
			<line class="st18" x1="916.5" y1="1035.5" x2="801" y2="1171.2"/>
			<line class="st18" x1="925.1" y1="1042.8" x2="809.6" y2="1178.5"/>
			<line class="st18" x1="933.7" y1="1050.1" x2="818.2" y2="1185.8"/>
		</g>
	</g>
	<path class="st13" d="M962.5,1109.3c0,0-39,46.6-72.2,45.3s-16.3-47.1-16.3-47.1s22.9-40.3,32.1-47.4L962.5,1109.3z"/>
	<polygon class="st3" points="874.3,1282 871,1269.1 802.7,1283.3 811,1296.1 	"/>
	<line class="st19" x1="867.5" y1="1270.2" x2="870.7" y2="1282.4"/>
	<line class="st19" x1="864.8" y1="1270.7" x2="867.9" y2="1283.2"/>
	<line class="st19" x1="862" y1="1271.5" x2="865.2" y2="1284"/>
	<line class="st19" x1="859" y1="1271.9" x2="862.2" y2="1284"/>
	<line class="st19" x1="856.3" y1="1272.4" x2="859.4" y2="1284.9"/>
	<line class="st19" x1="853.1" y1="1273.2" x2="856.4" y2="1285.7"/>
	<line class="st19" x1="850.3" y1="1273.6" x2="853.5" y2="1285.7"/>
	<line class="st19" x1="847.5" y1="1274.1" x2="850.7" y2="1286.6"/>
	<line class="st19" x1="844.4" y1="1275" x2="847.5" y2="1287.4"/>
	<line class="st19" x1="841.3" y1="1276" x2="844.4" y2="1288.1"/>
	<line class="st19" x1="838.5" y1="1276.5" x2="841.6" y2="1289"/>
	<line class="st19" x1="835.6" y1="1276.6" x2="838.7" y2="1289.1"/>
	<line class="st19" x1="832.4" y1="1277.5" x2="835.6" y2="1289.9"/>
	<line class="st19" x1="829.3" y1="1278.5" x2="832.4" y2="1290.6"/>
	<line class="st19" x1="826.5" y1="1279" x2="829.6" y2="1291.5"/>
	<line class="st19" x1="823.7" y1="1278.8" x2="827" y2="1291.5"/>
	<line class="st19" x1="820.6" y1="1279.7" x2="823.8" y2="1292.7"/>
	<line class="st19" x1="817.4" y1="1280.7" x2="820.7" y2="1293.3"/>
	<line class="st19" x1="814.6" y1="1281.2" x2="817.8" y2="1293.7"/>
	<polygon class="st20" points="874.4,1282.3 871.1,1269.4 802.5,1283.5 809.5,1295.4 	"/>
	<polyline class="st8" points="865.5,1288.9 863.4,1290.1 867.8,1301.6 862.8,1303.7 859,1291.4 854.8,1292.8 858.8,1305 
		853.9,1306.7 850.5,1293.6 845.9,1295.1 849.6,1308.6 844.9,1309.9 840.4,1296.1 836.6,1297.1 840.8,1311.5 836.7,1312.3 
		831.7,1298.2 826.9,1299 832.4,1312.6 827.3,1313.6 821.5,1299.6 	"/>
	<path class="st21" d="M878,1282c-18.9,9.3-23.5,10.6-23.5,10.6"/>
	<path class="st21" d="M855.1,1292.4c-7.1,2.7-41.8,8.9-41.8,8.9l8.3,13.1c16.1,1.2,62.1-19.4,62.1-19.4s29.3-13,24.2-36
		s-38.1-0.9-38.1-0.9"/>
	<path class="st21" d="M883.7,1295.1c0,0-46,20.6-62.1,19.4l-8.3-13.1"/>
	<path class="st3" d="M867.6,1294.1c0,0,13.3,10.7,41.5-14.4l-6.9-9.3c0,0-24.1,19.6-28,7.6s7-18.7,7-18.7s9.5-7.9,14.6,1.2
		s-1.4,14.4-1.4,14.4l9.8,4.3c0,0,6.8,0,7.8-18.4s-24.1-15.4-29.8-14.4s-20.9,8.6-23,16.5S849.9,1281.4,867.6,1294.1z"/>
	<polyline class="st8" points="900.6,1271.7 899.2,1273.4 905.7,1282.1 902.1,1284.9 896.2,1275.5 892.4,1277.9 898.2,1287.7 
		893.9,1289.9 889.2,1279.8 885.8,1281.1 889.2,1291.6 884,1294.2 882.9,1282.1 878.4,1282.6 878.6,1295.3 872,1295.6 876.3,1281.5 
		873.7,1279.6 866.2,1293.3 862.9,1291.2 860.2,1287.1 873,1277.9 872.4,1274.4 857.4,1280.9 856.3,1275 872.5,1272.3 873,1269.5 
		857.8,1268.5 859.3,1263 873.6,1266.7 875.8,1264.6 863.2,1257.3 867.9,1252.6 877.1,1262.3 880.1,1259.9 872.2,1249.4 
		877.9,1247.7 883.2,1257.9 886.5,1257.1 883.9,1245.8 889.7,1245.3 888.9,1256.3 892.2,1257.4 895.8,1245.2 901.3,1246.4 
		894.4,1258.5 896.5,1260.8 907.7,1251.9 910.4,1258 897.4,1263.6 898.5,1266.8 911.1,1265.7 909.7,1270.7 902.3,1270.5 	"/>
	<path class="st21" d="M879.6,1282.4c21.5-8.4,18.9-16.9,18.9-16.9s-4.3-15.3-17.2-6c0,0-12.5,7.6-7.7,19.1
		c4.4,10.4,23.6-3.2,27.6-7.8c0.3-0.4,1-0.5,1.4-0.1c0.1,0.1,0.1,0.1,0.2,0.2l6.3,9c0,0-40.7,33.5-51,3.9c0,0-10-19.5,15.6-34.4
		c0,0,32-13.7,37.1,9.3c1.3,6.1,0.1,12.6-3.4,17.8"/>
	<polyline class="st3" points="714.3,1260.2 706,1248.2 733.2,1231.2 741.5,1243.3 714.3,1260.2 	"/>
	<line class="st22" x1="724.2" y1="1236.8" x2="731.5" y2="1248.4"/>
	<line class="st22" x1="721.5" y1="1238.8" x2="728.9" y2="1250.3"/>
	<line class="st22" x1="718.6" y1="1240.7" x2="726" y2="1252.3"/>
	<line class="st22" x1="715.8" y1="1242.1" x2="723.2" y2="1253.7"/>
	<line class="st22" x1="712.5" y1="1243.8" x2="720.7" y2="1256.1"/>
	<line class="st22" x1="710" y1="1246.2" x2="717.3" y2="1257.7"/>
	<line class="st22" x1="726.9" y1="1234.7" x2="734.2" y2="1246.3"/>
	<line class="st22" x1="729.3" y1="1233.2" x2="736.7" y2="1244.8"/>
	<polygon class="st23" points="713.7,1260.6 740.9,1243.6 732.1,1230.5 705.3,1247.8 	"/>
	<polygon class="st24" points="697.4,1259.6 705.9,1254 696.1,1239.1 688,1244.6 	"/>
	<path class="st9" d="M694.5,1248.2h4.1c0.2,0,0.3-0.1,0.4-0.3c0-0.1,0-0.1-0.1-0.2l-2.1-3.4c-0.1-0.2-0.3-0.2-0.5-0.1
		c0,0-0.1,0.1-0.1,0.1l-2.1,3.4c-0.1,0.2-0.1,0.4,0.1,0.5C694.3,1248.1,694.4,1248.2,694.5,1248.2L694.5,1248.2z"/>
	<path class="st9" d="M698.6,1250.2h-4.1c-0.2,0-0.3,0.1-0.4,0.3c0,0.1,0,0.1,0.1,0.2l2.1,3.4c0.1,0.2,0.3,0.2,0.5,0.1
		c0.1,0,0.1-0.1,0.1-0.1l2.1-3.4c0.1-0.2,0.1-0.4-0.1-0.5C698.7,1250.2,698.6,1250.2,698.6,1250.2L698.6,1250.2z"/>
	<polygon class="st25" points="825.8,1322.8 838.5,1314.2 851.8,1333.8 838.6,1342.7 	"/>
	<path class="st9" d="M836.8,1328.6l4.3-0.1c0.2,0,0.4-0.2,0.3-0.4c0-0.1,0-0.1-0.1-0.2l-2.3-3.5c-0.1-0.2-0.3-0.2-0.5-0.1
		c0,0-0.1,0.1-0.1,0.1l-2,3.7c-0.1,0.2,0,0.4,0.1,0.5C836.7,1328.5,836.7,1328.6,836.8,1328.6L836.8,1328.6z"/>
	<path class="st9" d="M841.1,1330.6l-4.3,0.1c-0.2,0-0.4,0.2-0.3,0.4c0,0.1,0,0.1,0.1,0.2l2.3,3.5c0.1,0.2,0.3,0.2,0.5,0.1
		c0.1,0,0.1-0.1,0.1-0.1l2-3.7c0.1-0.2,0-0.4-0.1-0.5C841.2,1330.6,841.2,1330.6,841.1,1330.6L841.1,1330.6z"/>
	<polygon class="st26" points="827.3,1423.2 842.9,1447.1 862.4,1434.9 846.3,1410.6 	"/>
	<line class="st8" x1="851" y1="1418.2" x2="843.5" y2="1422.9"/>
	<line class="st8" x1="852.7" y1="1420.9" x2="845.2" y2="1425.7"/>
	<line class="st8" x1="854.7" y1="1423.7" x2="847.2" y2="1428.4"/>
	<line class="st8" x1="856.4" y1="1426.4" x2="848.9" y2="1431.1"/>
	<line class="st8" x1="854.7" y1="1438.5" x2="849.8" y2="1431.2"/>
	<line class="st8" x1="852.1" y1="1440.5" x2="847.2" y2="1433.1"/>
	<line class="st8" x1="849.4" y1="1442.5" x2="844.5" y2="1435.1"/>
	<line class="st8" x1="846.8" y1="1444.3" x2="841.8" y2="1436.9"/>
	<line class="st8" x1="844.2" y1="1423.3" x2="839.3" y2="1416.1"/>
	<line class="st8" x1="841.5" y1="1425.1" x2="836.5" y2="1417.8"/>
	<line class="st8" x1="838.8" y1="1427.2" x2="833.9" y2="1419.8"/>
	
		<rect x="707.9" y="1457.9" transform="matrix(0.8444 -0.5357 0.5357 0.8444 -673.5705 612.7601)" class="st3" width="20.5" height="16.1"/>
	<line class="st27" x1="710.5" y1="1461.9" x2="713.7" y2="1467.3"/>
	<line class="st27" x1="712.4" y1="1460.8" x2="715.7" y2="1466.1"/>
	<line class="st27" x1="714.4" y1="1459.4" x2="717.6" y2="1464.8"/>
	<line class="st27" x1="716.3" y1="1458.2" x2="719.6" y2="1463.6"/>
	<line class="st27" x1="724.8" y1="1459.4" x2="719.6" y2="1462.8"/>
	<line class="st27" x1="726.2" y1="1461.4" x2="721" y2="1464.8"/>
	<line class="st27" x1="727.6" y1="1463.3" x2="722.3" y2="1466.8"/>
	<line class="st27" x1="728.8" y1="1465.3" x2="723.6" y2="1468.7"/>
	<line class="st27" x1="714.1" y1="1466.7" x2="708.9" y2="1470.1"/>
	<line class="st27" x1="715.3" y1="1468.7" x2="710" y2="1472.1"/>
	<line class="st27" x1="716.7" y1="1470.6" x2="711.4" y2="1474"/>
	<line class="st27" x1="717.9" y1="1472.5" x2="712.6" y2="1475.9"/>
	
		<rect x="707.9" y="1458.3" transform="matrix(0.8444 -0.5357 0.5357 0.8444 -673.7687 612.8224)" class="st28" width="20.5" height="16.1"/>
	<polyline class="st3" points="626.2,1349.5 617.9,1337.4 645.1,1320.5 653.5,1332.6 626.2,1349.5 	"/>
	<line class="st29" x1="632.9" y1="1328.3" x2="640.3" y2="1339.9"/>
	<line class="st29" x1="630.3" y1="1329.4" x2="637.7" y2="1340.9"/>
	<line class="st29" x1="628.1" y1="1331.4" x2="635.5" y2="1343"/>
	<line class="st29" x1="625.1" y1="1332.7" x2="632.5" y2="1344.2"/>
	<line class="st29" x1="622.5" y1="1334.2" x2="630.6" y2="1346.5"/>
	<line class="st29" x1="620.4" y1="1336.1" x2="627.7" y2="1347.7"/>
	<line class="st29" x1="639.8" y1="1323.2" x2="647.2" y2="1334.8"/>
	<line class="st29" x1="637.7" y1="1325.3" x2="645.1" y2="1336.8"/>
	<line class="st29" x1="634.7" y1="1326.5" x2="642.1" y2="1338"/>
	<line class="st29" x1="642.3" y1="1322.3" x2="649.7" y2="1333.9"/>
	<polygon class="st21" points="625.5,1349.8 652.8,1332.9 644,1319.7 617.2,1337.1 	"/>
	<line class="st30" x1="542.6" y1="1335.2" x2="558.9" y2="1360.8"/>
	<polygon class="st3" points="527.5,1344.9 543.8,1370.1 564.2,1357.7 547.9,1332.4 	"/>
	<line class="st31" x1="552.1" y1="1340.3" x2="544.1" y2="1344.9"/>
	<line class="st31" x1="553.9" y1="1343.1" x2="545.8" y2="1347.8"/>
	<line class="st31" x1="555.8" y1="1346" x2="547.8" y2="1350.7"/>
	<line class="st31" x1="557.6" y1="1348.8" x2="549.6" y2="1353.5"/>
	<line class="st31" x1="555.7" y1="1361.2" x2="550.7" y2="1353.5"/>
	<line class="st31" x1="552.7" y1="1363.1" x2="547.7" y2="1355.5"/>
	<line class="st31" x1="549.8" y1="1365.1" x2="544.8" y2="1357.5"/>
	<line class="st31" x1="547" y1="1366.9" x2="541.9" y2="1359.2"/>
	<line class="st31" x1="545" y1="1345.5" x2="540" y2="1337.8"/>
	<line class="st31" x1="542" y1="1347.2" x2="536.9" y2="1339.5"/>
	<line class="st31" x1="539.1" y1="1349.2" x2="534" y2="1341.5"/>
	<line class="st31" x1="536.2" y1="1350.9" x2="531.2" y2="1343.3"/>
	<polygon class="st32" points="527,1344.9 543.3,1370.1 563.7,1357.7 547.4,1332.4 	"/>
	<line class="st33" x1="503.3" y1="1451.4" x2="527.4" y2="1436.1"/>
	<polyline class="st3" points="511.5,1461.7 505,1451.1 527.3,1437.2 534.1,1447.1 511.9,1460.9 	"/>
	<line class="st34" x1="520.8" y1="1440.6" x2="526.8" y2="1450.1"/>
	<line class="st34" x1="518.8" y1="1442.9" x2="524.8" y2="1452.4"/>
	<line class="st34" x1="516.5" y1="1444.1" x2="522.5" y2="1453.5"/>
	<line class="st34" x1="513.9" y1="1445.7" x2="519.9" y2="1455.2"/>
	<line class="st34" x1="511.5" y1="1447.3" x2="518.1" y2="1457.4"/>
	<line class="st34" x1="523.4" y1="1439.4" x2="529.4" y2="1448.9"/>
	<line class="st34" x1="509.5" y1="1449.2" x2="515.5" y2="1458.6"/>
	<polyline class="st35" points="510.6,1461.4 533.6,1447.3 526.4,1436.6 504.5,1450.8 	"/>
	
		<rect x="676.6" y="1506.5" transform="matrix(0.8412 -0.5408 0.5408 0.8412 -712.9226 614.3574)" class="st36" width="25.7" height="28.8"/>
	<path class="st9" d="M683.2,1529.1h4.1c0.2,0,0.3-0.1,0.4-0.3c0-0.1,0-0.1-0.1-0.2l-2.1-3.4c-0.1-0.2-0.3-0.2-0.5-0.1
		c0,0-0.1,0.1-0.1,0.1l-2.1,3.4c-0.1,0.2-0.1,0.4,0.1,0.5C683.1,1529.1,683.1,1529.1,683.2,1529.1L683.2,1529.1z"/>
	<path class="st9" d="M687.3,1531.2h-4.1c-0.2,0-0.3,0.1-0.4,0.3c0,0.1,0,0.1,0.1,0.2l2.1,3.4c0.1,0.2,0.3,0.2,0.5,0.1
		c0.1,0,0.1-0.1,0.1-0.1l2.1-3.4c0.1-0.2,0.1-0.4-0.1-0.5C687.5,1531.2,687.4,1531.2,687.3,1531.2L687.3,1531.2z"/>
	<polyline class="st6" points="504.7,426.7 517.9,420.4 530.3,449.9 517,456.2 504.7,426.7 	"/>
	<line class="st22" x1="526.2" y1="440.2" x2="513.6" y2="445.6"/>
	<line class="st22" x1="524.7" y1="437.2" x2="512.2" y2="442.6"/>
	<line class="st22" x1="523.3" y1="434" x2="510.7" y2="439.5"/>
	<line class="st22" x1="522.3" y1="431" x2="509.8" y2="436.5"/>
	<line class="st22" x1="521.2" y1="427.6" x2="507.8" y2="433.6"/>
	<line class="st22" x1="519.3" y1="424.6" x2="506.7" y2="430"/>
	<line class="st22" x1="527.8" y1="443.1" x2="515.3" y2="448.6"/>
	<line class="st22" x1="529" y1="445.8" x2="516.4" y2="451.2"/>
	<polygon class="st4" points="504.5,426 516.8,455.5 531.2,449 518.3,419.8 	"/>
</g>
<g id="Text">
	<rect x="307.9" y="1194.2" class="st37" width="329.3" height="66.7"/>
	<rect x="184.2" y="225.2" class="st37" width="197.7" height="66.7"/>
	<g class="st38">
		<path class="st9" d="M230.7,262.9c-0.2,3.1-1.4,5.6-3.5,7.4c-2.1,1.8-4.8,2.7-8.3,2.7c-3.7,0-6.7-1.3-8.8-3.8
			c-2.1-2.5-3.2-6-3.2-10.4v-1.8c0-2.8,0.5-5.3,1.5-7.4c1-2.1,2.4-3.8,4.2-4.9c1.8-1.1,4-1.7,6.4-1.7c3.4,0,6.1,0.9,8.1,2.7
			c2.1,1.8,3.2,4.3,3.6,7.6h-6c-0.1-1.9-0.7-3.2-1.6-4.1c-0.9-0.8-2.3-1.3-4.1-1.3c-2,0-3.5,0.7-4.5,2.2s-1.5,3.7-1.5,6.7v2.2
			c0,3.2,0.5,5.5,1.4,6.9c1,1.5,2.5,2.2,4.5,2.2c1.9,0,3.2-0.4,4.2-1.3s1.4-2.2,1.6-3.9H230.7z"/>
		<path class="st9" d="M245.4,262h-4.8v10.7h-6v-29.1h10.8c3.4,0,6.1,0.8,8,2.3c1.9,1.5,2.8,3.7,2.8,6.5c0,2-0.4,3.6-1.3,5
			c-0.9,1.3-2.2,2.4-3.9,3.2l6.3,11.9v0.3h-6.4L245.4,262z M240.6,257.1h4.8c1.5,0,2.7-0.4,3.5-1.2c0.8-0.8,1.2-1.8,1.2-3.2
			c0-1.4-0.4-2.5-1.2-3.2c-0.8-0.8-2-1.2-3.6-1.2h-4.8V257.1z"/>
		<path class="st9" d="M278.3,260h-11.5v7.8h13.5v4.8h-19.5v-29.1h19.5v4.9h-13.5v6.9h11.5V260z"/>
	</g>
	<g class="st38">
		<path class="st9" d="M300.3,266.6h-10.5l-2,6h-6.4l10.9-29.1h5.6l10.9,29.1h-6.4L300.3,266.6z M291.4,261.8h7.3l-3.7-10.9
			L291.4,261.8z"/>
	</g>
	<g class="st38">
		<path class="st9" d="M331,248.3H322v24.3h-6v-24.3h-8.8v-4.9H331V248.3z"/>
		<path class="st9" d="M351.9,260h-11.5v7.8h13.5v4.8h-19.5v-29.1h19.5v4.9h-13.5v6.9h11.5V260z"/>
	</g>
	<g class="st38">
		<path class="st9" d="M341.3,1211.2l7.5,21.1l7.4-21.1h7.9v29.1h-6v-8l0.6-13.8l-7.9,21.7h-4.1l-7.8-21.7l0.6,13.7v8h-6v-29.1
			H341.3z"/>
		<path class="st9" d="M381.9,1238.1c-1.4,1.7-3.4,2.6-5.9,2.6c-2.3,0-4.1-0.7-5.3-2c-1.2-1.3-1.8-3.3-1.9-5.9v-14.2h5.8v14
			c0,2.3,1,3.4,3.1,3.4c2,0,3.3-0.7,4-2v-15.4h5.8v21.7h-5.4L381.9,1238.1z"/>
		<path class="st9" d="M403.6,1234.3c0-0.7-0.4-1.3-1.1-1.7c-0.7-0.4-1.8-0.8-3.4-1.1c-5.2-1.1-7.7-3.3-7.7-6.6
			c0-1.9,0.8-3.5,2.4-4.8c1.6-1.3,3.7-1.9,6.3-1.9c2.7,0,4.9,0.6,6.6,1.9c1.6,1.3,2.5,3,2.5,5h-5.8c0-0.8-0.3-1.5-0.8-2.1
			c-0.5-0.5-1.4-0.8-2.5-0.8c-1,0-1.7,0.2-2.3,0.7c-0.5,0.4-0.8,1-0.8,1.7c0,0.6,0.3,1.2,0.9,1.6c0.6,0.4,1.6,0.7,3.1,1
			s2.7,0.6,3.6,1c3.1,1.1,4.6,3.1,4.6,5.8c0,2-0.8,3.6-2.5,4.8c-1.7,1.2-3.9,1.8-6.6,1.8c-1.8,0-3.4-0.3-4.8-1
			c-1.4-0.6-2.5-1.5-3.3-2.7c-0.8-1.1-1.2-2.3-1.2-3.7h5.5c0.1,1,0.4,1.8,1.1,2.4c0.7,0.5,1.7,0.8,2.8,0.8c1.1,0,1.9-0.2,2.5-0.6
			C403.3,1235.5,403.6,1235,403.6,1234.3z"/>
		<path class="st9" d="M412.9,1213c0-0.9,0.3-1.6,0.9-2.1c0.6-0.6,1.4-0.8,2.4-0.8c1,0,1.8,0.3,2.4,0.8c0.6,0.6,0.9,1.3,0.9,2.1
			c0,0.9-0.3,1.6-0.9,2.2s-1.4,0.8-2.4,0.8c-1,0-1.8-0.3-2.4-0.8C413.2,1214.6,412.9,1213.9,412.9,1213z M419.1,1240.3h-5.8v-21.7
			h5.8V1240.3z"/>
		<path class="st9" d="M431.7,1231.6l-2.1,2.1v6.6h-5.8v-30.8h5.8v17l1.1-1.4l5.5-6.5h6.9l-7.8,9l8.5,12.6h-6.6L431.7,1231.6z"/>
	</g>
	<g class="st38">
		<path class="st9" d="M453.6,1231.6l-2.1,2.1v6.6h-5.8v-30.8h5.8v17l1.1-1.4l5.5-6.5h6.9l-7.8,9l8.5,12.6h-6.6L453.6,1231.6z"/>
	</g>
	<g class="st38">
		<path class="st9" d="M477.2,1240.7c-3.2,0-5.8-1-7.8-2.9c-2-1.9-3-4.5-3-7.8v-0.6c0-2.2,0.4-4.1,1.3-5.8s2-3,3.6-4
			c1.5-0.9,3.3-1.4,5.3-1.4c3,0,5.3,0.9,7,2.8c1.7,1.9,2.6,4.5,2.6,7.9v2.4h-13.8c0.2,1.4,0.8,2.5,1.7,3.4c0.9,0.9,2.1,1.3,3.6,1.3
			c2.2,0,4-0.8,5.2-2.4l2.8,3.2c-0.9,1.2-2,2.2-3.5,2.9C480.7,1240.4,479,1240.7,477.2,1240.7z M476.6,1222.9
			c-1.1,0-2.1,0.4-2.8,1.2s-1.2,1.9-1.4,3.3h8v-0.5c0-1.3-0.4-2.3-1-3C478.7,1223.3,477.8,1222.9,476.6,1222.9z"/>
		<path class="st9" d="M494.7,1218.6l0.2,2.5c1.5-1.9,3.6-2.9,6.2-2.9c2.3,0,4,0.7,5.1,2c1.1,1.3,1.7,3.4,1.7,6v14h-5.8v-13.9
			c0-1.2-0.3-2.1-0.8-2.7c-0.5-0.6-1.4-0.8-2.7-0.8c-1.6,0-2.8,0.7-3.7,2.1v15.3h-5.8v-21.7H494.7z"/>
		<path class="st9" d="M524.1,1234.3c0-0.7-0.4-1.3-1.1-1.7c-0.7-0.4-1.8-0.8-3.4-1.1c-5.2-1.1-7.7-3.3-7.7-6.6
			c0-1.9,0.8-3.5,2.4-4.8c1.6-1.3,3.7-1.9,6.3-1.9c2.7,0,4.9,0.6,6.6,1.9c1.6,1.3,2.5,3,2.5,5h-5.8c0-0.8-0.3-1.5-0.8-2.1
			c-0.5-0.5-1.4-0.8-2.5-0.8c-1,0-1.7,0.2-2.3,0.7c-0.5,0.4-0.8,1-0.8,1.7c0,0.6,0.3,1.2,0.9,1.6c0.6,0.4,1.6,0.7,3.1,1
			s2.7,0.6,3.6,1c3.1,1.1,4.6,3.1,4.6,5.8c0,2-0.8,3.6-2.5,4.8c-1.7,1.2-3.9,1.8-6.6,1.8c-1.8,0-3.4-0.3-4.8-1
			c-1.4-0.6-2.5-1.5-3.3-2.7c-0.8-1.1-1.2-2.3-1.2-3.7h5.5c0.1,1,0.4,1.8,1.1,2.4c0.7,0.5,1.7,0.8,2.8,0.8c1.1,0,1.9-0.2,2.5-0.6
			C523.8,1235.5,524.1,1235,524.1,1234.3z"/>
		<path class="st9" d="M567.8,1240.3h-6v-12.5H550v12.5h-6v-29.1h6v11.8h11.7v-11.8h6V1240.3z"/>
		<path class="st9" d="M585.6,1238.1c-1.4,1.7-3.4,2.6-5.9,2.6c-2.3,0-4.1-0.7-5.3-2c-1.2-1.3-1.8-3.3-1.9-5.9v-14.2h5.8v14
			c0,2.3,1,3.4,3.1,3.4c2,0,3.3-0.7,4-2v-15.4h5.8v21.7h-5.4L585.6,1238.1z"/>
		<path class="st9" d="M607.3,1234.3c0-0.7-0.4-1.3-1.1-1.7c-0.7-0.4-1.8-0.8-3.4-1.1c-5.2-1.1-7.7-3.3-7.7-6.6
			c0-1.9,0.8-3.5,2.4-4.8c1.6-1.3,3.7-1.9,6.3-1.9c2.7,0,4.9,0.6,6.6,1.9c1.6,1.3,2.5,3,2.5,5h-5.8c0-0.8-0.3-1.5-0.8-2.1
			c-0.5-0.5-1.4-0.8-2.5-0.8c-1,0-1.7,0.2-2.3,0.7c-0.5,0.4-0.8,1-0.8,1.7c0,0.6,0.3,1.2,0.9,1.6c0.6,0.4,1.6,0.7,3.1,1
			s2.7,0.6,3.6,1c3.1,1.1,4.6,3.1,4.6,5.8c0,2-0.8,3.6-2.5,4.8c-1.7,1.2-3.9,1.8-6.6,1.8c-1.8,0-3.4-0.3-4.8-1
			c-1.4-0.6-2.5-1.5-3.3-2.7c-0.8-1.1-1.2-2.3-1.2-3.7h5.5c0.1,1,0.4,1.8,1.1,2.4c0.7,0.5,1.7,0.8,2.8,0.8c1.1,0,1.9-0.2,2.5-0.6
			C607,1235.5,607.3,1235,607.3,1234.3z"/>
	</g>
	<g class="st38">
		<path class="st9" d="M1143.8,376.8h12.8v4.8h-18.8v-29.1h6V376.8z"/>
		<path class="st9" d="M1159.6,354.4c0-0.9,0.3-1.6,0.9-2.1c0.6-0.6,1.4-0.8,2.4-0.8c1,0,1.8,0.3,2.4,0.8c0.6,0.6,0.9,1.3,0.9,2.1
			c0,0.9-0.3,1.6-0.9,2.2s-1.4,0.8-2.4,0.8s-1.8-0.3-2.4-0.8S1159.6,355.2,1159.6,354.4z M1165.7,381.6h-5.8V360h5.8V381.6z"/>
		<path class="st9" d="M1175.9,360l0.2,2.4c1.5-1.9,3.6-2.8,6.2-2.8c2.8,0,4.7,1.1,5.7,3.3c1.5-2.2,3.7-3.3,6.5-3.3
			c2.3,0,4.1,0.7,5.2,2.1c1.1,1.4,1.7,3.4,1.7,6.2v13.8h-5.8v-13.8c0-1.2-0.2-2.1-0.7-2.7s-1.3-0.9-2.5-0.9c-1.7,0-2.9,0.8-3.6,2.5
			l0,14.9h-5.8v-13.8c0-1.3-0.2-2.2-0.7-2.7s-1.3-0.8-2.5-0.8c-1.6,0-2.8,0.7-3.6,2v15.3h-5.8V360H1175.9z"/>
		<path class="st9" d="M1207.6,381.6v-17.4h-3.2V360h3.2v-1.8c0-2.4,0.7-4.3,2.1-5.7c1.4-1.3,3.3-2,5.9-2c0.8,0,1.8,0.1,2.9,0.4
			l-0.1,4.5c-0.5-0.1-1.1-0.2-1.8-0.2c-2.2,0-3.3,1-3.3,3.1v1.7h4.3v4.2h-4.3v17.4H1207.6z"/>
		<path class="st9" d="M1226.8,360v22.8c0,2.4-0.6,4.2-1.9,5.6c-1.3,1.3-3.1,2-5.5,2c-1,0-2-0.1-2.9-0.3v-4.6
			c0.7,0.1,1.3,0.2,1.8,0.2c1.7,0,2.6-0.9,2.6-2.8V360H1226.8z M1220.5,354.4c0-0.9,0.3-1.6,0.9-2.1c0.6-0.6,1.4-0.8,2.4-0.8
			s1.8,0.3,2.4,0.8c0.6,0.6,0.9,1.3,0.9,2.1c0,0.9-0.3,1.6-0.9,2.2s-1.4,0.8-2.4,0.8c-1,0-1.8-0.3-2.4-0.8
			S1220.5,355.2,1220.5,354.4z"/>
		<path class="st9" d="M1230.4,370.6c0-2.1,0.4-4.1,1.2-5.7c0.8-1.7,2-3,3.6-3.9c1.6-0.9,3.4-1.4,5.4-1.4c2.9,0,5.3,0.9,7.2,2.7
			c1.8,1.8,2.9,4.2,3.1,7.3l0,1.5c0,3.3-0.9,6-2.8,8s-4.3,3-7.5,3s-5.6-1-7.5-3c-1.9-2-2.8-4.7-2.8-8.2V370.6z M1236.2,371
			c0,2.1,0.4,3.6,1.2,4.7c0.8,1.1,1.9,1.6,3.3,1.6c1.4,0,2.5-0.5,3.3-1.6c0.8-1.1,1.2-2.8,1.2-5.2c0-2-0.4-3.6-1.2-4.7
			c-0.8-1.1-1.9-1.7-3.3-1.7c-1.4,0-2.5,0.6-3.3,1.7C1236.6,367,1236.2,368.7,1236.2,371z"/>
	</g>
	<g class="st38">
		<path class="st9" d="M1266.7,365.4c-0.8-0.1-1.5-0.2-2.1-0.2c-2.2,0-3.6,0.7-4.3,2.2v14.2h-5.8V360h5.5l0.2,2.6c1.2-2,2.8-3,4.8-3
			c0.6,0,1.2,0.1,1.8,0.3L1266.7,365.4z"/>
	</g>
	<g class="st38">
		<path class="st9" d="M1268.2,370.6c0-3.4,0.8-6.1,2.3-8.1c1.5-2,3.6-3,6.2-3c2.1,0,3.8,0.8,5.2,2.4v-11.1h5.8v30.8h-5.2l-0.3-2.3
			c-1.4,1.8-3.3,2.7-5.6,2.7c-2.5,0-4.6-1-6.1-3C1269,377,1268.2,374.2,1268.2,370.6z M1274,371.1c0,2,0.4,3.6,1.1,4.7
			c0.7,1.1,1.7,1.6,3.1,1.6c1.8,0,3-0.8,3.8-2.3v-8.6c-0.7-1.5-2-2.3-3.7-2.3C1275.4,364.3,1274,366.5,1274,371.1z"/>
	</g>
	<rect x="307.9" y="1265.2" class="st37" width="161.4" height="32.7"/>
	<g class="st38">
		<path class="st9" d="M363.6,1285.4h6.2v2.4h-9.2v-14.3h2.9V1285.4z"/>
	</g>
	<g class="st38">
		<path class="st9" d="M376.2,1288c-1.6,0-2.8-0.5-3.8-1.4c-1-1-1.5-2.2-1.5-3.8v-0.3c0-1.1,0.2-2,0.6-2.9c0.4-0.8,1-1.5,1.8-1.9
			c0.8-0.5,1.6-0.7,2.6-0.7c1.5,0,2.6,0.5,3.4,1.4c0.8,0.9,1.3,2.2,1.3,3.9v1.2h-6.8c0.1,0.7,0.4,1.2,0.8,1.7c0.5,0.4,1,0.6,1.8,0.6
			c1.1,0,1.9-0.4,2.6-1.2l1.4,1.6c-0.4,0.6-1,1.1-1.7,1.4C377.9,1287.8,377.1,1288,376.2,1288z M375.9,1279.3c-0.6,0-1,0.2-1.4,0.6
			c-0.3,0.4-0.6,0.9-0.7,1.6h3.9v-0.2c0-0.6-0.2-1.1-0.5-1.5C376.9,1279.4,376.5,1279.3,375.9,1279.3z"/>
		<path class="st9" d="M385.9,1284.3l2-7.2h3l-3.6,10.6h-2.7l-3.6-10.6h3L385.9,1284.3z"/>
	</g>
	<g class="st38">
		<path class="st9" d="M397,1288c-1.6,0-2.8-0.5-3.8-1.4c-1-1-1.5-2.2-1.5-3.8v-0.3c0-1.1,0.2-2,0.6-2.9c0.4-0.8,1-1.5,1.8-1.9
			c0.8-0.5,1.6-0.7,2.6-0.7c1.5,0,2.6,0.5,3.4,1.4c0.8,0.9,1.3,2.2,1.3,3.9v1.2h-6.8c0.1,0.7,0.4,1.2,0.8,1.7c0.5,0.4,1,0.6,1.8,0.6
			c1.1,0,1.9-0.4,2.6-1.2l1.4,1.6c-0.4,0.6-1,1.1-1.7,1.4C398.6,1287.8,397.8,1288,397,1288z M396.6,1279.3c-0.6,0-1,0.2-1.4,0.6
			c-0.3,0.4-0.6,0.9-0.7,1.6h3.9v-0.2c0-0.6-0.2-1.1-0.5-1.5C397.7,1279.4,397.2,1279.3,396.6,1279.3z"/>
		<path class="st9" d="M405.9,1287.8h-2.8v-15.1h2.8V1287.8z"/>
		<path class="st9" d="M422.9,1287.8h-9.8v-1.9l4.6-4.9c0.6-0.7,1.1-1.3,1.4-1.8s0.5-1,0.5-1.5c0-0.6-0.2-1.1-0.5-1.5
			c-0.3-0.4-0.8-0.5-1.4-0.5c-0.6,0-1.1,0.2-1.5,0.7c-0.4,0.4-0.6,1-0.6,1.7h-2.8c0-0.9,0.2-1.7,0.6-2.4c0.4-0.7,1-1.3,1.8-1.7
			c0.8-0.4,1.6-0.6,2.6-0.6c1.5,0,2.6,0.4,3.4,1.1c0.8,0.7,1.2,1.7,1.2,3c0,0.7-0.2,1.4-0.5,2.2s-1,1.6-1.9,2.6l-3.2,3.4h6.1V1287.8
			z"/>
	</g>
</g>
</svg>
