<svg xmlns="http://www.w3.org/2000/svg" width="1585.19" height="1772.81" viewBox="0 0 1585.19 1772.81"><title>Map Basement</title><g id="background"><polyline points="559.7 326.05 525.86 235.21 661.86 183.88 635.86 73.88 588.53 84.55" style="fill:none;stroke:#808285;stroke-miterlimit:10;stroke-width:11.3385829925537px"/><polyline points="75.19 453.88 184.07 441.38 188.69 440.88 254.53 424.55 305.86 431.88 492.19 423.13 501.69 419.55" style="fill:none;stroke:#808285;stroke-miterlimit:10;stroke-width:11.3385829925537px"/><polyline points="125.94 691.88 319.42 678.07 379.53 673.55 385.19 672.55 663.86 607.21 654.2 546.63" style="fill:none;stroke:#808285;stroke-miterlimit:10;stroke-width:11.3385829925537px"/><polyline points="439.86 159.88 457.86 238.55 525.86 235.21" style="fill:none;stroke:#808285;stroke-miterlimit:10;stroke-width:11.3385829925537px"/><polyline points="457.86 238.55 283.19 250.55 288.53 321.88 306.53 407.21 315.86 528.55 335.19 595.21 294.32 599.38" style="fill:none;stroke:#808285;stroke-miterlimit:10;stroke-width:11.3385829925537px"/><polyline points="519.2 9.88 188.8 68.49 17.86 95.21" style="fill:none;stroke:#808285;stroke-miterlimit:10;stroke-width:11.3385829925537px"/><polyline points="663.86 607.21 960.53 539.88 885.2 361.88 817.27 186.98 766.29 1.5" style="fill:none;stroke:#808285;stroke-miterlimit:10;stroke-width:11.3385829925537px"/><path d="M969.33,549.16l50,119.33,123.92,163.92,6.81,10.32,253.49,399-177,153s-237-306-280.49-363-130.49,15-130.49,15L291.25,1384.41" transform="translate(-8.81 -9.28)" style="fill:none;stroke:#808285;stroke-miterlimit:10;stroke-width:11.3385829925537px"/><line x1="635.86" y1="73.88" x2="633.19" y2="5.88" style="fill:none;stroke:#808285;stroke-miterlimit:10;stroke-width:11.3385829925537px"/><polyline points="167.86 341.88 167.19 323.88 90.53 329.88 105.86 448.55" style="fill:none;stroke:#808285;stroke-miterlimit:10;stroke-width:11.3385829925537px"/><path d="M563.59,1210.21s-187.49-180-204-252-10.5-163.49-10.5-163.49L339.22,687" transform="translate(-8.81 -9.28)" style="fill:none;stroke:#808285;stroke-miterlimit:10;stroke-width:11.3385829925537px"/><polyline points="296.44 1399.63 463.86 1284.55 507.86 1355.21" style="fill:none;stroke:#808285;stroke-miterlimit:10;stroke-width:11.3385829925537px"/><line x1="676.86" y1="1556.71" x2="811.01" y2="1766.81" style="fill:none;stroke:#808285;stroke-miterlimit:10;stroke-width:11.3385829925537px"/><line x1="1573.19" y1="1407.88" x2="1394.74" y2="1232.43" style="fill:none;stroke:#808285;stroke-miterlimit:10;stroke-width:11.3385829925537px"/><path d="M20,23.16,215.61,1238.71s58.5,147,100.49,202.49S597.8,1777.59,597.8,1782.09" transform="translate(-8.81 -9.28)" style="fill:none;stroke:#808285;stroke-miterlimit:10;stroke-width:22.6771659851074px"/><polygon points="1585.19 1373.88 1363.73 1143.43 976.75 525.46 862.75 175.97 811.76 5.5 1579.19 5.88 1585.19 1347.88 1585.19 1373.88" style="fill:#949494"/></g><g id="Create_-1" data-name="Create -1"><polyline points="336.19 545.38 535.7 512.38 489.69 396.38 318.69 406.88 314.19 329.88 535.7 316.88 537.7 335.38 574.7 319.88 565.2 301.38 718.2 239.88 809.2 468.88 822.2 541.38 669.7 566.38 670.2 545.63 639.7 551.38 642.2 570.38 365.69 617.88" style="fill:#e6e7e8;stroke:#58595b;stroke-miterlimit:10;stroke-width:2.83464574813843px"/><polyline points="490.36 395.55 490.44 397.63 497.69 416.88 502.19 427.38 537.2 512.88 336.69 546.38 366.69 618.88 642.7 569.88 639.7 552.05 650.7 549.63 661.7 547.88 670.78 546.13 670.7 566.88 822.2 541.38 809.7 467.38 802.2 449.38 799.7 443.88 788.7 417.38 758.2 340.38 719.2 240.88 565.7 302.38 574.7 320.38 566.7 323.88 556.7 328.88 538.2 335.88 537.2 317.38 315.69 331.38 319.69 407.88 491.19 396.88" style="fill:none;stroke:#6d6e71;stroke-miterlimit:10;stroke-width:2.83464574813843px"/><polygon points="272.69 334.88 121.69 348.38 128.19 421.88 280.69 412.88 272.69 334.88" style="fill:#e6e7e8;stroke:#58595b;stroke-miterlimit:10;stroke-width:2.83464574813843px"/><polygon points="132.69 460.38 211.19 448.88 225.69 561.88 288.19 551.88 299.69 626.88 166.69 652.38 142.69 573.88 132.69 460.38" style="fill:#e6e7e8;stroke:#58595b;stroke-miterlimit:10;stroke-width:2.83464574813843px"/><line x1="913.44" y1="1161.63" x2="919.38" y2="1165.69" style="fill:none;stroke:#fff;stroke-miterlimit:10;stroke-width:1.41732287406921px"/></g><g id="Other"><polyline points="598.95 120.88 292.53 197.88 277.86 132.55 582.53 61.88 598.95 120.88" style="fill:#e6e7e8;stroke:#58595b;stroke-miterlimit:10;stroke-width:2.83464574813843px"/><polygon points="473.69 700.88 405.69 731.38 503.19 965.38 563.2 1007.88 812.2 747.38 760.2 700.88 577.2 906.88 564.7 898.88 473.69 700.88" style="fill:#e6e7e8;stroke:#58595b;stroke-miterlimit:10;stroke-width:2.83464574813843px"/><polygon points="235.69 713.88 316.69 729.88 289.19 884.38 431.69 1122.88 370.19 1162.38 205.19 889.88 235.69 713.88" style="fill:#e6e7e8;stroke:#58595b;stroke-miterlimit:10;stroke-width:2.83464574813843px"/></g><g id="Musk_-1" data-name="Musk -1"><path d="M678,1570.82l-33.2,20.86-3.42,2.71-32.26,20.18-98.62-154.25-43.87,28.38-32-51.12,39.25-25.75-8.75-14,179.46-113.17,17.07,25.91,64.07-32.5-5.17-5.58-26.8,16.34-28.83-45.6,25-16.39-8.09-14.9,22-11.73,7.63,12.51,27.24-17.89,38.92,59.24-74.83,34.67-1.67,1.33,61.53-32.24,15.75-3.3,38-6.46,18.33-2,13-4.67-24.33-12.33-6-7.33s-17.15-28,4.67-68,53.67-57.67,53.67-57.67l37.45-25.57,56.55,47.57s-.53,14.07-19.33,51.67c-1,2,5.63,1.67,5.63,1.67s46.6,10.78,42.64,58.2c0,0-8.11,31.46-12.32,34.73s35.76-21.86,35.76-21.86l48.62,77.93-114.59,74-47.3-73.72-12.17,13.83-18.67,41-6.62,15.24-9.67,12.67-43.38,34,41.22-30.51,20.78,32.92L832,1468.49l-16-21.93,10.14-7.27-2.85-5-16.83,12.33-38.62,30.16,16.62,25.59-92.25,59.38" transform="translate(-8.81 -9.28)" style="fill:#5371a2"/><path d="M850.46,1240.16c-11.22-.83-22.4-5.55-31.19-17.52C791.15,1184.35,844,1122.32,844,1122.32s47.88-42.72,70-52" transform="translate(-8.81 -9.28)" style="fill:none;stroke:#bcbec0;stroke-miterlimit:10;stroke-width:3.23659273312366px"/><rect x="920.79" y="1271.35" width="135.73" height="91.75" transform="translate(-561.6 727.91) rotate(-32.49)" style="fill:none;stroke:#bcbec0;stroke-miterlimit:10;stroke-width:3.23659273312366px"/><polyline points="822.09 1314.63 826.41 1321.65 837.95 1314.31 850.55 1334.09 839.45 1341.15 854.24 1364.37 841.37 1372.56" style="fill:none;stroke:#bcbec0;stroke-miterlimit:10;stroke-width:3.23659273312366px"/><line x1="814.71" y1="1422.77" x2="818.27" y2="1428.36" style="fill:none;stroke:#bcbec0;stroke-miterlimit:10;stroke-width:3.23659273312366px"/><polyline points="776.38 1269.52 768.98 1257.91 749.46 1270.34 740.97 1257.02" style="fill:none;stroke:#bcbec0;stroke-miterlimit:10;stroke-width:3.23659273312366px"/><polyline points="770.44 1245.5 730.94 1185.44 681.61 1217.66 656.94 1233.78 685.52 1279.63 713.31 1262.55 717.14 1268.56" style="fill:none;stroke:#bcbec0;stroke-miterlimit:10;stroke-width:3.23659273312366px"/><path d="M758.26,1279.62l-79.36,56.58-33.13-52L466.5,1398.33l8.76,13.76-39.49,25.15,32.58,51.17,43.93-28L610,1613.93,785.75,1502l-17.25-27.09,84.71-64.82s16-10.17,24.79-34.52,22.56-48.81,31.77-55.89" transform="translate(-8.81 -9.28)" style="fill:none;stroke:#bcbec0;stroke-miterlimit:10;stroke-width:3.23659273312366px"/><line x1="832.27" y1="1360.23" x2="781.34" y2="1280.26" style="fill:none;stroke:#bcbec0;stroke-miterlimit:10;stroke-width:3.23659273312366px"/><rect x="840.45" y="1325.42" width="13.68" height="23.45" transform="translate(-594.43 655.1) rotate(-32.49)" style="fill:none;stroke:#bcbec0;stroke-miterlimit:10;stroke-width:3.23659273312366px"/><polyline points="655.47 1315.69 619.97 1338.3 627.36 1349.91 577.6 1391.26" style="fill:none;stroke:#bcbec0;stroke-miterlimit:10;stroke-width:3.23659273312366px"/><polyline points="565.28 1371.91 612.66 1340.54 621.97 1355.15" style="fill:none;stroke:#bcbec0;stroke-miterlimit:10;stroke-width:3.23659273312366px"/><line x1="569.01" y1="1433.6" x2="603.78" y2="1488.2" style="fill:none;stroke:#bcbec0;stroke-miterlimit:10;stroke-width:3.23659273312366px"/><polyline points="638.98 1498.42 635.76 1500.2 617.75 1510.13 608.16 1495.08" style="fill:none;stroke:#bcbec0;stroke-miterlimit:10;stroke-width:3.23659273312366px"/><path d="M678,1516.89" transform="translate(-8.81 -9.28)" style="fill:none;stroke:#bcbec0;stroke-miterlimit:10;stroke-width:3.23659273312366px"/><polyline points="646.46 1495.47 704.32 1465.88 736.72 1445.25" style="fill:none;stroke:#bcbec0;stroke-miterlimit:10;stroke-width:3.23659273312366px"/><path d="M761.58,1515" transform="translate(-8.81 -9.28)" style="fill:none;stroke:#bcbec0;stroke-miterlimit:10;stroke-width:3.23659273312366px"/><path d="M745.43,1489.63" transform="translate(-8.81 -9.28)" style="fill:none;stroke:#bcbec0;stroke-miterlimit:10;stroke-width:3.23659273312366px"/><path d="M768.78,1475.37" transform="translate(-8.81 -9.28)" style="fill:none;stroke:#bcbec0;stroke-miterlimit:10;stroke-width:3.23659273312366px"/><path d="M729.19,1535.63" transform="translate(-8.81 -9.28)" style="fill:none;stroke:#bcbec0;stroke-miterlimit:10;stroke-width:3.23659273312366px"/><line x1="673.38" y1="1530.9" x2="685.7" y2="1550.25" style="fill:none;stroke:#bcbec0;stroke-miterlimit:10;stroke-width:3.23659273312366px"/><path d="M604.25,1524.54" transform="translate(-8.81 -9.28)" style="fill:none;stroke:#bcbec0;stroke-miterlimit:10;stroke-width:3.23659273312366px"/><polyline points="545.92 1383.63 553.47 1378.83 566.52 1398.26 552.96 1409.37 562.82 1424.85 566.28 1430.3 569.65 1434.51" style="fill:none;stroke:#bcbec0;stroke-miterlimit:10;stroke-width:3.23659273312366px"/><path d="M603,1348.26" transform="translate(-8.81 -9.28)" style="fill:none;stroke:#bcbec0;stroke-miterlimit:10;stroke-width:3.23659273312366px"/><polyline points="537.5 1340.05 552.84 1364.13 537.75 1373.73" style="fill:none;stroke:#bcbec0;stroke-miterlimit:10;stroke-width:3.23659273312366px"/><path d="M475.26,1412.09" transform="translate(-8.81 -9.28)" style="fill:none;stroke:#bcbec0;stroke-miterlimit:10;stroke-width:3.23659273312366px"/><line x1="511.86" y1="1463.34" x2="535.82" y2="1448.08" style="fill:none;stroke:#bcbec0;stroke-miterlimit:10;stroke-width:3.23659273312366px"/><path d="M599.69,1595.74" transform="translate(-8.81 -9.28)" style="fill:none;stroke:#bcbec0;stroke-miterlimit:10;stroke-width:3.23659273312366px"/><path d="M621.88,1581.61" transform="translate(-8.81 -9.28)" style="fill:none;stroke:#bcbec0;stroke-miterlimit:10;stroke-width:3.23659273312366px"/><path d="M588.4,1580" transform="translate(-8.81 -9.28)" style="fill:none;stroke:#bcbec0;stroke-miterlimit:10;stroke-width:3.23659273312366px"/><path d="M634.71,1598.82" transform="translate(-8.81 -9.28)" style="fill:none;stroke:#bcbec0;stroke-miterlimit:10;stroke-width:3.23659273312366px"/><path d="M627.86,1588.07" transform="translate(-8.81 -9.28)" style="fill:none;stroke:#bcbec0;stroke-miterlimit:10;stroke-width:3.23659273312366px"/><path d="M743.87,1529.3" transform="translate(-8.81 -9.28)" style="fill:none;stroke:#bcbec0;stroke-miterlimit:10;stroke-width:3.23659273312366px"/><rect x="629.7" y="1336.99" width="28.41" height="15.8" transform="translate(-630.42 547.06) rotate(-32.49)" style="fill:none;stroke:#bcbec0;stroke-miterlimit:10;stroke-width:3.23659273312366px"/><polygon points="673.81 1202.48 695.93 1190.21 702.15 1204.26 681.61 1217.66 673.81 1202.48" style="fill:none;stroke:#bcbec0;stroke-miterlimit:10;stroke-width:3.23659273312366px"/><polyline points="741.12 1444.66 744.64 1442.02 842.71 1379.57 835.86 1368.82" style="fill:none;stroke:#bcbec0;stroke-miterlimit:10;stroke-width:3.23659273312366px"/><path d="M664,1310.28,750.22,1266s28.78-16.51,79.29-18.47c10.12-.39,20.05-6,28.16-11.65s15.54-12.4,23.5-18.36a188.17,188.17,0,0,1,16.25-10.79c5.18-3.09,10.69-5.69,15.62-9.18a144.53,144.53,0,0,0,20.22-17.66l.61-.63s12.35-13.91,28.55-6.09,23.41,16.72,23.41,16.72,21.45,18.73,11,49c-8.22,23.74-10,25-10,25" transform="translate(-8.81 -9.28)" style="fill:none;stroke:#bcbec0;stroke-miterlimit:10;stroke-width:3.23659273312366px"/><path d="M970.54,1117.89c-.43,16-21.21,53.35-21.21,53.35" transform="translate(-8.81 -9.28)" style="fill:none;stroke:#bcbec0;stroke-miterlimit:10;stroke-width:3.23659273312366px"/><path d="M940.94,1293.22s33.35-23,21.77-47.1c-7.29-15.14-24.48-23.47-39.7-28.38q-3.28-1.06-6.61-1.93c-3.16-.82-6.12-2.39-9.32-3-3.36-.62-6.83.19-10,1.42-7.67,2.95-14.19,8.19-20.74,13.14-8.87,6.71-17,14.57-26.65,20.11-10.51,6-23.46,9.86-35.86,9.14-11.65-.68-23.18-2.06-34.85-.61a66.59,66.59,0,0,0-6.88,1.21" transform="translate(-8.81 -9.28)" style="fill:none;stroke:#bcbec0;stroke-miterlimit:10;stroke-width:3.23659273312366px"/><polyline points="714.32 1260.24 706 1248.17 733.19 1231.24 741.51 1243.31 714.32 1260.24" style="fill:#8ba0bf"/><line x1="724.19" y1="1236.83" x2="731.55" y2="1248.37" style="fill:none;stroke:#fff;stroke-miterlimit:10;stroke-width:1.90616582931124px"/><line x1="721.51" y1="1238.76" x2="728.87" y2="1250.3" style="fill:none;stroke:#fff;stroke-miterlimit:10;stroke-width:1.90616582931124px"/><line x1="718.61" y1="1240.72" x2="725.98" y2="1252.26" style="fill:none;stroke:#fff;stroke-miterlimit:10;stroke-width:1.90616582931124px"/><line x1="715.79" y1="1242.12" x2="723.16" y2="1253.66" style="fill:none;stroke:#fff;stroke-miterlimit:10;stroke-width:1.90616582931124px"/><line x1="712.55" y1="1243.8" x2="720.65" y2="1256.1" style="fill:none;stroke:#fff;stroke-miterlimit:10;stroke-width:1.90616582931124px"/><line x1="709.97" y1="1246.18" x2="717.33" y2="1257.72" style="fill:none;stroke:#fff;stroke-miterlimit:10;stroke-width:1.90616582931124px"/><line x1="726.88" y1="1234.73" x2="734.24" y2="1246.27" style="fill:none;stroke:#fff;stroke-miterlimit:10;stroke-width:1.90616582931124px"/><line x1="729.31" y1="1233.21" x2="736.68" y2="1244.76" style="fill:none;stroke:#fff;stroke-miterlimit:10;stroke-width:1.90616582931124px"/><polygon points="713.67 1260.56 740.86 1243.63 732.11 1230.46 705.33 1247.84 713.67 1260.56" style="fill:none;stroke:#bcbec0;stroke-miterlimit:10;stroke-width:3.60387759426198px"/><polygon points="697.36 1259.63 705.9 1253.96 696.1 1239.05 688.02 1244.61 697.36 1259.63" style="fill:#8ba0bf;stroke:#bcbec0;stroke-miterlimit:10;stroke-width:3.060810987842px"/><path d="M703.26,1257.44h4.14a.34.34,0,0,0,.3-.52l-2.07-3.45a.36.36,0,0,0-.59,0l-2.07,3.45a.34.34,0,0,0,.3.52Z" transform="translate(-8.81 -9.28)" style="fill:#fff"/><path d="M707.4,1259.51h-4.14a.34.34,0,0,0-.3.52l2.07,3.45a.34.34,0,0,0,.59,0l2.07-3.45a.34.34,0,0,0-.3-.52Z" transform="translate(-8.81 -9.28)" style="fill:#fff"/><polygon points="825.79 1322.85 838.52 1314.23 851.76 1333.78 838.58 1342.71 825.79 1322.85" style="fill:#8ba0bf;stroke:#bcbec0;stroke-miterlimit:10;stroke-width:3.11338089706408px"/><path d="M845.57,1337.86l4.31-.13a.36.36,0,0,0,.29-.55l-2.26-3.52a.37.37,0,0,0-.62,0l-2,3.65a.36.36,0,0,0,.32.53Z" transform="translate(-8.81 -9.28)" style="fill:#fff"/><path d="M849.95,1339.88l-4.31.13a.36.36,0,0,0-.29.55l2.26,3.52a.36.36,0,0,0,.62,0l2-3.65a.36.36,0,0,0-.32-.53Z" transform="translate(-8.81 -9.28)" style="fill:#fff"/><polygon points="827.27 1423.23 842.86 1447.05 862.38 1434.92 846.33 1410.63 827.27 1423.23" style="fill:#8ba0bf;stroke:#bcbec0;stroke-miterlimit:10;stroke-width:2.83464574813843px"/><line x1="851.01" y1="1418.17" x2="843.51" y2="1422.92" style="fill:none;stroke:#fff;stroke-miterlimit:10;stroke-width:1.41732287406921px"/><line x1="852.72" y1="1420.91" x2="845.22" y2="1425.66" style="fill:none;stroke:#fff;stroke-miterlimit:10;stroke-width:1.41732287406921px"/><line x1="854.67" y1="1423.66" x2="847.18" y2="1428.4" style="fill:none;stroke:#fff;stroke-miterlimit:10;stroke-width:1.41732287406921px"/><line x1="856.38" y1="1426.4" x2="848.89" y2="1431.14" style="fill:none;stroke:#fff;stroke-miterlimit:10;stroke-width:1.41732287406921px"/><line x1="854.71" y1="1438.52" x2="849.75" y2="1431.17" style="fill:none;stroke:#fff;stroke-miterlimit:10;stroke-width:1.41732287406921px"/><line x1="852.12" y1="1440.46" x2="847.16" y2="1433.1" style="fill:none;stroke:#fff;stroke-miterlimit:10;stroke-width:1.41732287406921px"/><line x1="849.44" y1="1442.49" x2="844.47" y2="1435.13" style="fill:none;stroke:#fff;stroke-miterlimit:10;stroke-width:1.41732287406921px"/><line x1="846.75" y1="1444.28" x2="841.79" y2="1436.92" style="fill:none;stroke:#fff;stroke-miterlimit:10;stroke-width:1.41732287406921px"/><line x1="844.2" y1="1423.29" x2="839.31" y2="1416.09" style="fill:none;stroke:#fff;stroke-miterlimit:10;stroke-width:1.41732287406921px"/><line x1="841.53" y1="1425.12" x2="836.55" y2="1417.77" style="fill:none;stroke:#fff;stroke-miterlimit:10;stroke-width:1.41732287406921px"/><line x1="838.84" y1="1427.15" x2="833.87" y2="1419.81" style="fill:none;stroke:#fff;stroke-miterlimit:10;stroke-width:1.41732287406921px"/><rect x="716.63" y="1467.28" width="20.52" height="16.1" transform="translate(-685.98 609.56) rotate(-32.39)" style="fill:#8ba0bf"/><line x1="710.48" y1="1461.92" x2="713.73" y2="1467.26" style="fill:none;stroke:#fff;stroke-miterlimit:10;stroke-width:1.27479695689629px"/><line x1="712.44" y1="1460.75" x2="715.68" y2="1466.1" style="fill:none;stroke:#fff;stroke-miterlimit:10;stroke-width:1.27479695689629px"/><line x1="714.4" y1="1459.41" x2="717.64" y2="1464.76" style="fill:none;stroke:#fff;stroke-miterlimit:10;stroke-width:1.27479695689629px"/><line x1="716.35" y1="1458.24" x2="719.59" y2="1463.59" style="fill:none;stroke:#fff;stroke-miterlimit:10;stroke-width:1.27479695689629px"/><line x1="724.84" y1="1459.43" x2="719.6" y2="1462.83" style="fill:none;stroke:#fff;stroke-miterlimit:10;stroke-width:1.27479695689629px"/><line x1="726.2" y1="1461.43" x2="720.95" y2="1464.83" style="fill:none;stroke:#fff;stroke-miterlimit:10;stroke-width:1.27479695689629px"/><line x1="727.59" y1="1463.35" x2="722.35" y2="1466.75" style="fill:none;stroke:#fff;stroke-miterlimit:10;stroke-width:1.27479695689629px"/><line x1="728.82" y1="1465.27" x2="723.57" y2="1468.67" style="fill:none;stroke:#fff;stroke-miterlimit:10;stroke-width:1.27479695689629px"/><line x1="714.1" y1="1466.67" x2="708.86" y2="1470.08" style="fill:none;stroke:#fff;stroke-miterlimit:10;stroke-width:1.27479695689629px"/><line x1="715.25" y1="1468.7" x2="710.01" y2="1472.1" style="fill:none;stroke:#fff;stroke-miterlimit:10;stroke-width:1.27479695689629px"/><line x1="716.65" y1="1470.61" x2="711.41" y2="1474.02" style="fill:none;stroke:#fff;stroke-miterlimit:10;stroke-width:1.27479695689629px"/><line x1="717.88" y1="1472.53" x2="712.64" y2="1475.94" style="fill:none;stroke:#fff;stroke-miterlimit:10;stroke-width:1.27479695689629px"/><rect x="716.63" y="1467.65" width="20.52" height="16.1" transform="translate(-686.17 609.62) rotate(-32.39)" style="fill:none;stroke:#bcbec0;stroke-miterlimit:10;stroke-width:2.30044025879643px"/><polyline points="626.2 1349.51 617.87 1337.42 645.11 1320.46 653.45 1332.55 626.2 1349.51" style="fill:#8ba0bf"/><line x1="632.89" y1="1328.34" x2="640.27" y2="1339.9" style="fill:none;stroke:#fff;stroke-miterlimit:10;stroke-width:1.53070867061615px"/><line x1="630.27" y1="1329.39" x2="637.65" y2="1340.95" style="fill:none;stroke:#fff;stroke-miterlimit:10;stroke-width:1.53070867061615px"/><line x1="628.14" y1="1331.45" x2="635.51" y2="1343.01" style="fill:none;stroke:#fff;stroke-miterlimit:10;stroke-width:1.53070867061615px"/><line x1="625.12" y1="1332.66" x2="632.49" y2="1344.22" style="fill:none;stroke:#fff;stroke-miterlimit:10;stroke-width:1.53070867061615px"/><line x1="622.45" y1="1334.2" x2="630.56" y2="1346.52" style="fill:none;stroke:#fff;stroke-miterlimit:10;stroke-width:1.53070867061615px"/><line x1="620.36" y1="1336.08" x2="627.74" y2="1347.65" style="fill:none;stroke:#fff;stroke-miterlimit:10;stroke-width:1.53070867061615px"/><line x1="639.83" y1="1323.2" x2="647.21" y2="1334.76" style="fill:none;stroke:#fff;stroke-miterlimit:10;stroke-width:1.53070867061615px"/><line x1="637.7" y1="1325.26" x2="645.08" y2="1336.83" style="fill:none;stroke:#fff;stroke-miterlimit:10;stroke-width:1.53070867061615px"/><line x1="634.68" y1="1326.47" x2="642.06" y2="1338.03" style="fill:none;stroke:#fff;stroke-miterlimit:10;stroke-width:1.53070867061615px"/><line x1="642.33" y1="1322.33" x2="649.71" y2="1333.89" style="fill:none;stroke:#fff;stroke-miterlimit:10;stroke-width:1.53070867061615px"/><polygon points="625.55 1349.83 652.79 1332.87 644.03 1319.68 617.2 1337.08 625.55 1349.83" style="fill:none;stroke:#bcbec0;stroke-miterlimit:10;stroke-width:2.83464574813843px"/><line x1="542.63" y1="1335.22" x2="558.89" y2="1360.85" style="fill:none;stroke:#bcbec0;stroke-miterlimit:10;stroke-width:2.80526754072922px"/><polygon points="527.55 1344.88 543.83 1370.13 564.22 1357.69 547.94 1332.43 527.55 1344.88" style="fill:#8ba0bf"/><line x1="552.13" y1="1340.27" x2="544.11" y2="1344.94" style="fill:none;stroke:#fff;stroke-miterlimit:10;stroke-width:1.87872470661589px"/><line x1="553.86" y1="1343.11" x2="545.84" y2="1347.79" style="fill:none;stroke:#fff;stroke-miterlimit:10;stroke-width:1.87872470661589px"/><line x1="555.84" y1="1345.97" x2="547.83" y2="1350.65" style="fill:none;stroke:#fff;stroke-miterlimit:10;stroke-width:1.87872470661589px"/><line x1="557.57" y1="1348.82" x2="549.56" y2="1353.49" style="fill:none;stroke:#fff;stroke-miterlimit:10;stroke-width:1.87872470661589px"/><line x1="555.73" y1="1361.15" x2="550.69" y2="1353.51" style="fill:none;stroke:#fff;stroke-miterlimit:10;stroke-width:1.87872470661589px"/><line x1="552.73" y1="1363.11" x2="547.69" y2="1355.46" style="fill:none;stroke:#fff;stroke-miterlimit:10;stroke-width:1.87872470661589px"/><line x1="549.85" y1="1365.12" x2="544.81" y2="1357.48" style="fill:none;stroke:#fff;stroke-miterlimit:10;stroke-width:1.87872470661589px"/><line x1="546.97" y1="1366.89" x2="541.94" y2="1359.24" style="fill:none;stroke:#fff;stroke-miterlimit:10;stroke-width:1.87872470661589px"/><line x1="545" y1="1345.5" x2="539.95" y2="1337.85" style="fill:none;stroke:#fff;stroke-miterlimit:10;stroke-width:1.87872470661589px"/><line x1="541.96" y1="1347.15" x2="536.92" y2="1339.51" style="fill:none;stroke:#fff;stroke-miterlimit:10;stroke-width:1.87872470661589px"/><line x1="539.09" y1="1349.17" x2="534.04" y2="1341.53" style="fill:none;stroke:#fff;stroke-miterlimit:10;stroke-width:1.87872470661589px"/><line x1="536.21" y1="1350.94" x2="531.17" y2="1343.3" style="fill:none;stroke:#fff;stroke-miterlimit:10;stroke-width:1.87872470661589px"/><polygon points="527 1344.88 543.29 1370.13 563.67 1357.68 547.39 1332.43 527 1344.88" style="fill:none;stroke:#bcbec0;stroke-miterlimit:10;stroke-width:3.390260642618px"/><line x1="503.3" y1="1451.36" x2="527.37" y2="1436.09" style="fill:none;stroke:#bcbec0;stroke-miterlimit:10;stroke-width:3.29815773368716px"/><polyline points="511.46 1461.69 505.04 1451.06 527.31 1437.19 534.13 1447.08 511.85 1460.95" style="fill:#8ba0bf"/><line x1="520.85" y1="1440.62" x2="526.85" y2="1450.09" style="fill:none;stroke:#fff;stroke-miterlimit:10;stroke-width:1.56150069236395px"/><line x1="518.83" y1="1442.93" x2="524.83" y2="1452.4" style="fill:none;stroke:#fff;stroke-miterlimit:10;stroke-width:1.56150069236395px"/><line x1="516.46" y1="1444.05" x2="522.46" y2="1453.53" style="fill:none;stroke:#fff;stroke-miterlimit:10;stroke-width:1.56150069236395px"/><line x1="513.92" y1="1445.72" x2="519.93" y2="1455.19" style="fill:none;stroke:#fff;stroke-miterlimit:10;stroke-width:1.56150069236395px"/><line x1="511.49" y1="1447.32" x2="518.07" y2="1457.43" style="fill:none;stroke:#fff;stroke-miterlimit:10;stroke-width:1.56150069236395px"/><line x1="523.39" y1="1439.42" x2="529.4" y2="1448.9" style="fill:none;stroke:#fff;stroke-miterlimit:10;stroke-width:1.56150069236395px"/><line x1="509.53" y1="1449.16" x2="515.53" y2="1458.63" style="fill:none;stroke:#fff;stroke-miterlimit:10;stroke-width:1.56150069236395px"/><polyline points="510.58 1461.38 533.6 1447.35 526.43 1436.56 504.49 1450.79" style="fill:none;stroke:#bcbec0;stroke-miterlimit:10;stroke-width:2.95223913476006px"/><rect x="681.74" y="1525.61" width="25.72" height="28.82" transform="matrix(0.84, -0.54, 0.54, 0.84, -725.65, 602.33)" style="fill:#8ba0bf;stroke:#bcbec0;stroke-miterlimit:10;stroke-width:2.87310250930486px"/><path d="M692,1538.4h4.14a.34.34,0,0,0,.3-.52l-2.07-3.45a.36.36,0,0,0-.59,0l-2.07,3.45a.34.34,0,0,0,.3.52Z" transform="translate(-8.81 -9.28)" style="fill:#fff"/><path d="M696.11,1540.47H692a.34.34,0,0,0-.3.52l2.07,3.45a.34.34,0,0,0,.59,0l2.07-3.45a.34.34,0,0,0-.3-.52Z" transform="translate(-8.81 -9.28)" style="fill:#fff"/></g><g id="Text"><rect x="307.86" y="1194.21" width="329.33" height="66.67" style="fill:#231f20"/><rect x="184.19" y="225.21" width="197.67" height="66.67" style="fill:#231f20"/><text transform="translate(205.19 272.63)" style="font-size:41px;fill:#fff;font-family:Roboto-Bold, Roboto;font-weight:700">CRE<tspan x="76.05" y="0" style="letter-spacing:-0.05859375em">A</tspan><tspan x="101.24" y="0">TE</tspan></text><text transform="translate(330.81 1240.3)" style="font-size:41px;fill:#fff;font-family:Roboto-Bold, Roboto;font-weight:700">Musik<tspan x="112.71" y="0" style="letter-spacing:-0.009765625em">k</tspan><tspan x="134.21" y="0">ens Hus</tspan></text><text transform="translate(1135.19 381.63)" style="font-size:41px;fill:#fff;font-family:Roboto-Bold, Roboto;font-weight:700">Limfjo<tspan x="117.09" y="0" style="letter-spacing:-0.00927734375em">r</tspan><tspan x="131.67" y="0">d</tspan></text><rect x="307.86" y="1265.21" width="161.37" height="32.67" style="fill:#231f20"/><text transform="translate(317.11 1287.8)" style="font-size:20.08977508544922px;fill:#fff;font-family:Roboto-Bold, Roboto;font-weight:700">Basement</text></g></svg>